<?xml version="1.0" encoding="UTF-8"?>
<svg xmlns="http://www.w3.org/2000/svg" xmlns:xlink="http://www.w3.org/1999/xlink" width="512" height="512" viewBox="0 0 58 59" version="1.1"><!-- Generator: Sketch 50.2 (55047) - http://www.bohemiancoding.com/sketch --><title>031 - Pipe </title><desc>Created with Sketch.</desc><defs/><g id="Page-1" stroke="none" stroke-width="1" fill="none" fill-rule="evenodd"><g id="031---Pipe-" fill-rule="nonzero"><rect id="Rectangle-path" fill="#71C285" x="21" y="6" width="16" height="26.52"/><polygon id="Shape" fill="#71C285" points="41.415 52 51 52 51 36 41.415 36 15.585 36 6 36 6 52 15.585 52"/><circle id="Oval" fill="#B0D3F0" cx="29" cy="44" r="14"/><path d="M29,59 C20.7157288,59 14,52.2842712 14,44 C14,35.7157288 20.7157288,29 29,29 C37.2842712,29 44,35.7157288 44,44 C43.9906315,52.2803876 37.2803876,58.9906315 29,59 Z M29,31 C21.8202983,31 16,36.8202983 16,44 C16,51.1797017 21.8202983,57 29,57 C36.1797017,57 42,51.1797017 42,44 C41.991734,36.8237249 36.1762751,31.008266 29,31 Z" id="Shape" fill="#556080"/><path d="M34.994,53 C34.5635696,53 34.1814307,52.7245699 34.0453167,52.3162278 C33.9092027,51.9078856 34.0496557,51.4582582 34.394,51.2 C36.6710288,49.5086974 38.0093946,46.8364197 38,44 C38.0000119,43.3954569 37.939375,42.7924375 37.819,42.2 C37.7378348,41.8461831 37.8547833,41.4761673 38.1245491,41.2332669 C38.394315,40.9903665 38.7745276,40.9127325 39.1179232,41.030434 C39.4613188,41.1481355 39.7139624,41.4426859 39.778,41.8 C40.6282583,45.9672853 38.9988166,50.2511904 35.594,52.8 C35.4209038,52.9298221 35.2103702,53 34.994,53 Z" id="Shape" fill="#C03A2B"/><path d="M37,39 C36.6852427,39 36.3888544,38.8518058 36.2,38.6 C34.5022283,36.3335037 31.8358606,34.9993307 29.004,34.9993307 C26.1721394,34.9993307 23.5057717,36.3335037 21.808,38.6 C21.4766292,39.0418278 20.8498278,39.1313708 20.408,38.8 C19.9661722,38.4686292 19.8766292,37.8418278 20.208,37.4 C22.2833737,34.6310854 25.5416439,33.0013325 29.002,33.0013325 C32.4623561,33.0013325 35.7206263,34.6310854 37.796,37.4 C38.0228358,37.7024414 38.0597205,38.1069499 37.8913267,38.44543 C37.7229329,38.7839101 37.3780515,38.99849 37,39 Z" id="Shape" fill="#E57E25"/><path d="M23.006,53 C22.7896298,53 22.5790962,52.9298221 22.406,52.8 C19.0011834,50.2511904 17.3717417,45.9672853 18.222,41.8 C18.2860376,41.4426859 18.5386812,41.1481355 18.8820768,41.030434 C19.2254724,40.9127325 19.605685,40.9903665 19.8754509,41.2332669 C20.1452167,41.4761673 20.2621652,41.8461831 20.181,42.2 C20.060625,42.7924375 19.9999881,43.3954569 20,44 C19.9908401,46.8365972 21.329594,49.5089088 23.607,51.2 C23.9513443,51.4582582 24.0917973,51.9078856 23.9556833,52.3162278 C23.8195693,52.7245699 23.4374304,53 23.007,53 L23.006,53 Z" id="Shape" fill="#24AE5F"/><path d="M35,45 L26,45 C25.4477153,45 25,44.5522847 25,44 C25,43.4477153 25.4477153,43 26,43 L35,43 C35.5522847,43 36,43.4477153 36,44 C36,44.5522847 35.5522847,45 35,45 Z" id="Shape" fill="#2C3E50"/><rect id="Rectangle-path" fill="#4C8056" transform="translate(4.500000, 44.000000) rotate(-90.000000) translate(-4.500000, -44.000000) " x="-7.5" y="39.5" width="24" height="9" rx="2"/><rect id="Rectangle-path" fill="#4C8056" transform="translate(53.500000, 44.000000) rotate(90.000000) translate(-53.500000, -44.000000) " x="41.5" y="39.5" width="24" height="9" rx="2"/><circle id="Oval" fill="#4482C3" cx="29" cy="44" r="2"/><rect id="Rectangle-path" fill="#4C8056" x="17" y="0" width="24" height="9" rx="2"/></g></g></svg>
