<svg height="511pt" viewBox="1 -68 511.99802 511" width="511pt" xmlns="http://www.w3.org/2000/svg"><path d="m486.398438 9.03125h-460.796876c-9.425781 0-17.066406 7.640625-17.066406 17.066406v290.132813c0 9.425781 7.640625 17.066406 17.066406 17.066406h460.796876c9.425781 0 17.066406-7.640625 17.066406-17.066406v-290.132813c0-9.425781-7.640625-17.066406-17.066406-17.066406zm-315.730469 290.132812c-70.695313 0-128-57.304687-128-128 0-70.691406 57.304687-128 128-128 70.691406 0 128 57.308594 128 128 0 70.695313-57.308594 128-128 128zm298.664062-170.664062v145.066406c0 9.425782-7.640625 17.066406-17.066406 17.066406h-102.398437c-9.425782 0-17.066407-7.640624-17.066407-17.066406v-204.800781c0-9.425781 7.640625-17.066406 17.066407-17.066406h102.398437c9.425781 0 17.066406 7.640625 17.066406 17.066406zm0 0" fill="#acabb1"/><path d="m332.800781 273.566406c0 9.425782 7.640625 17.066406 17.066407 17.066406h102.398437c9.425781 0 17.066406-7.640624 17.066406-17.066406v-59.734375h-136.53125zm0 0" fill="#ff9478"/><path d="m332.800781 128.5h136.53125v85.332031h-136.53125zm0 0" fill="#ffc477"/><path d="m452.265625 51.699219h-102.398437c-9.425782 0-17.066407 7.640625-17.066407 17.066406v59.734375h136.53125v-59.734375c0-9.425781-7.640625-17.066406-17.066406-17.066406zm0 0" fill="#ff9478"/><path d="m51.199219 333.300781h68.265625v34.132813h-68.265625zm0 0" fill="#57565c"/><path d="m392.535156 333.300781h68.265625v34.132813h-68.265625zm0 0" fill="#57565c"/><path d="m170.667969 43.164062c-70.695313 0-128 57.308594-128 128 0 70.695313 57.304687 128 128 128 70.691406 0 128-57.304687 128-128 0-70.691406-57.308594-128-128-128zm27.304687 183.125c-15.171875-7.738281-26.183594-21.742187-30.121094-38.3125-5.027343-.816406-9.417968-3.859374-11.949218-8.277343l-73.898438 42.667969c-9.472656-16.300782 2.730469-41.046876 27.222656-55.125 14.285157-9.257813 31.917969-11.757813 48.214844-6.828126 3.242188-3.976562 8.09375-6.292968 13.226563-6.316406v-85.332031c18.855469 0 34.132812 22.953125 34.132812 51.199219.839844 17.007812-5.800781 33.53125-18.175781 45.226562.757812 1.898438 1.136719 3.929688 1.109375 5.972656-.007813 3-.800781 5.941407-2.304687 8.535157l73.898437 42.667969c-9.386719 16.296874-36.863281 18.089843-61.355469 3.921874zm0 0" fill="#ffeb99"/><path d="m186.625 165.191406c12.375-11.695312 19.015625-28.21875 18.175781-45.226562 0-28.246094-15.277343-51.199219-34.132812-51.199219v85.332031c7.109375.015625 13.46875 4.433594 15.957031 11.09375zm0 0" fill="#e6e7e8"/><path d="m157.441406 160.414062c-16.292968-4.929687-33.929687-2.429687-48.214844 6.828126-24.488281 14.078124-36.691406 38.824218-27.222656 55.125l73.902344-42.667969c-3.566406-6.121094-2.953125-13.808594 1.535156-19.285157zm0 0" fill="#e6e7e8"/><path d="m170.667969 188.230469c-.945313 0-1.886719-.085938-2.816407-.253907 3.9375 16.570313 14.949219 30.574219 30.121094 38.3125 24.492188 14.167969 51.96875 12.375 61.355469-3.921874l-73.898437-42.667969c-3.046876 5.273437-8.671876 8.527343-14.761719 8.53125zm0 0" fill="#e6e7e8"/><path d="m185.429688 179.699219c1.503906-2.59375 2.296874-5.535157 2.304687-8.535157.027344-2.042968-.351563-4.074218-1.109375-5.972656-3.269531-8.808594-13.0625-13.300781-21.875-10.03125-2.863281 1.0625-5.390625 2.878906-7.308594 5.253906-5.929687 7.328126-4.796875 18.070313 2.527344 24.003907 2.277344 1.84375 4.992188 3.066406 7.882812 3.558593.929688.167969 1.871094.253907 2.816407.253907 6.089843-.003907 11.714843-3.257813 14.761719-8.53125zm0 0" fill="#ffb655"/><g fill="#3e3d42"><path d="m486.398438.5h-460.796876c-14.140624 0-25.601562 11.460938-25.601562 25.597656v290.136719c0 14.136719 11.460938 25.597656 25.601562 25.597656h17.066407v25.601563c0 4.710937 3.820312 8.53125 8.53125 8.53125h68.265625c4.714844 0 8.535156-3.820313 8.535156-8.53125v-25.601563h256v25.601563c0 4.710937 3.820312 8.53125 8.53125 8.53125h68.265625c4.714844 0 8.535156-3.820313 8.535156-8.53125v-25.601563h17.066407c14.136718 0 25.601562-11.460937 25.601562-25.597656v-290.136719c0-14.136718-11.460938-25.597656-25.601562-25.597656zm-375.464844 358.398438h-51.199219v-17.066407h51.199219zm341.332031 0h-51.199219v-17.066407h51.199219zm42.667969-42.664063c0 4.710937-3.820313 8.53125-8.535156 8.53125h-460.796876c-4.714843 0-8.535156-3.820313-8.535156-8.53125v-290.136719c0-4.710937 3.820313-8.53125 8.535156-8.53125h460.796876c4.714843 0 8.535156 3.820313 8.535156 8.53125zm0 0"/><path d="m452.265625 43.164062h-102.398437c-14.140626 0-25.601563 11.464844-25.601563 25.601563v204.800781c0 14.136719 11.460937 25.597656 25.601563 25.597656h102.398437c14.140625 0 25.601563-11.460937 25.601563-25.597656v-204.800781c0-14.136719-11.460938-25.601563-25.601563-25.601563zm-110.933594 93.867188h119.46875v68.269531h-119.46875zm8.535157-76.800781h102.398437c4.714844 0 8.535156 3.824219 8.535156 8.535156v51.199219h-119.46875v-51.199219c0-4.710937 3.820313-8.535156 8.535157-8.535156zm102.398437 221.867187h-102.398437c-4.714844 0-8.535157-3.820312-8.535157-8.53125v-51.199218h119.46875v51.199218c0 4.710938-3.820312 8.53125-8.535156 8.53125zm0 0"/><path d="m170.667969 34.632812c-75.40625 0-136.535157 61.128907-136.535157 136.53125 0 75.40625 61.128907 136.535157 136.535157 136.535157 75.402343 0 136.53125-61.128907 136.53125-136.535157-.089844-75.367187-61.164063-136.441406-136.53125-136.53125zm0 256c-65.980469 0-119.46875-53.488281-119.46875-119.46875 0-65.976562 53.488281-119.464843 119.46875-119.464843 65.976562 0 119.464843 53.488281 119.464843 119.464843-.070312 65.953126-53.515624 119.398438-119.464843 119.46875zm0 0"/><path d="m196.265625 171.164062c-.027344-1.023437-.117187-2.046874-.273437-3.0625 11.660156-13.273437 17.855468-30.476562 17.339843-48.136718 0-33.492188-18.773437-59.734375-42.664062-59.734375-4.714844 0-8.535157 3.824219-8.535157 8.535156v78.4375c-2.46875.839844-4.789062 2.054687-6.886718 3.601563-17.300782-3.46875-35.277344-.238282-50.285156 9.039062-15.792969 8.425781-27.71875 22.628906-33.28125 39.644531-2.742188 9.078125-1.683594 18.878907 2.933593 27.160157 2.363281 4.066406 7.566407 5.453124 11.640625 3.105468l67.890625-39.199218c1.9375 1.710937 4.128907 3.109374 6.496094 4.144531 5.683594 16.714843 17.503906 30.648437 33.066406 38.980469 11.378907 6.753906 24.316407 10.441406 37.546875 10.691406 4.546875.023437 9.074219-.550782 13.472656-1.707032 9.207032-2.15625 17.148438-7.949218 22.015626-16.058593 2.351562-4.078125.953124-9.292969-3.121094-11.648438l-67.9375-39.253906c.328125-1.492187.523437-3.011719.582031-4.539063zm-27.015625 8.390626c-4.625-.753907-7.757812-5.117188-7.003906-9.738282.238281-1.460937.855468-2.835937 1.789062-3.984375 2.921875-3.667969 8.261719-4.277343 11.933594-1.359375 1.273438 1.015625 2.230469 2.375 2.753906 3.917969.34375.882813.503906 1.828125.476563 2.773437.003906 1.5-.386719 2.96875-1.132813 4.269532-.414062.683594-.910156 1.3125-1.476562 1.875-.351563.316406-.726563.601562-1.117188.855468-.21875.167969-.441406.324219-.675781.46875-.488281.261719-.996094.476563-1.527344.640626-.195312.066406-.382812.136718-.589843.1875-.480469.101562-.972657.167968-1.464844.195312-.570313.0625-1.140625.0625-1.707032 0-.078124-.085938-.136718-.078125-.257812-.101562zm9.949219-99.695313c9.832031 5.972656 17.066406 21.964844 17.066406 40.105469.214844 11.257812-2.863281 22.332031-8.855469 31.863281-.242187-.203125-.523437-.347656-.769531-.554687-.785156-.625-1.601563-1.210938-2.449219-1.75-.433594-.273438-.851562-.527344-1.3125-.773438-.902344-.488281-1.832031-.917969-2.785156-1.289062-.304688-.128907-.585938-.308594-.894531-.417969zm-91.859375 129.570313c.070312-1.875.355468-3.730469.851562-5.539063 4.449219-12.589844 13.484375-23.039063 25.300782-29.261719 8.742187-5.214844 18.675781-8.097656 28.851562-8.371094 1.074219 0 2.140625 0 3.175781.121094v.210938c-.289062 1.507812-.441406 3.039062-.453125 4.574218.003906 1.574219.148438 3.140626.433594 4.6875zm152.941406 16.769531c-13.15625 2.515625-26.78125-.101563-38.066406-7.316407-9.855469-5.398437-17.910156-13.570312-23.160156-23.507812 1.53125-.53125 3.011718-1.207031 4.414062-2.023438h.050781c1.355469-.785156 2.636719-1.695312 3.820313-2.722656l58.128906 33.5625c-1.644531.871094-3.382812 1.546875-5.1875 2.007813zm0 0"/></g></svg>