<svg xmlns="http://www.w3.org/2000/svg" height="464pt" version="1.1" viewBox="0 -52 464 464" width="464pt">
<g id="surface1">
<path d="M 32 336 L 80 336 L 80 360 L 32 360 Z M 32 336 " style=" stroke:none;fill-rule:nonzero;fill:rgb(73.72549%,74.509804%,75.294118%);fill-opacity:1;" />
<path d="M 384 336 L 432 336 L 432 360 L 384 360 Z M 384 336 " style=" stroke:none;fill-rule:nonzero;fill:rgb(73.72549%,74.509804%,75.294118%);fill-opacity:1;" />
<path d="M 168 24 C 247.527344 24 312 88.472656 312 168 L 464 168 L 464 0 L 0 0 L 0 168 L 24 168 C 24 88.472656 88.472656 24 168 24 Z M 168 24 " style=" stroke:none;fill-rule:nonzero;fill:rgb(84.705882%,85.098039%,85.490196%);fill-opacity:1;" />
<path d="M 312 168 C 312 247.527344 247.527344 312 168 312 C 88.472656 312 24 247.527344 24 168 L 0 168 L 0 336 L 464 336 L 464 168 Z M 312 168 " style=" stroke:none;fill-rule:nonzero;fill:rgb(81.960784%,82.745098%,83.137255%);fill-opacity:1;" />
<path d="M 188.398438 182.71875 L 257.921875 219.679688 C 262.140625 222.222656 264.957031 226.566406 265.550781 231.457031 C 266.144531 236.351562 264.449219 241.242188 260.960938 244.71875 L 244.71875 260.960938 C 241.242188 264.449219 236.351562 266.144531 231.457031 265.550781 C 226.566406 264.957031 222.222656 262.140625 219.679688 257.921875 L 184 198.480469 L 182.71875 196.398438 C 173.492188 201.199219 162.507812 201.199219 153.28125 196.398438 L 152 198.480469 L 116.320312 257.921875 C 113.777344 262.140625 109.433594 264.957031 104.542969 265.550781 C 99.648438 266.144531 94.757812 264.449219 91.28125 260.960938 L 75.039062 244.71875 C 71.550781 241.242188 69.855469 236.351562 70.449219 231.457031 C 71.042969 226.566406 73.859375 222.222656 78.078125 219.679688 L 139.601562 182.71875 C 137.222656 178.179688 135.984375 173.125 136 168 L 24 168 C 24 247.527344 88.472656 312 168 312 C 247.527344 312 312 247.527344 312 168 L 192 168 C 192.015625 173.125 190.777344 178.179688 188.398438 182.71875 Z M 188.398438 182.71875 " style=" stroke:none;fill-rule:nonzero;fill:rgb(50.196078%,50.980392%,52.156863%);fill-opacity:1;" />
<path d="M 168 24 C 88.472656 24 24 88.472656 24 168 L 136 168 C 135.984375 162.875 137.222656 157.820312 139.601562 153.28125 L 78.078125 116.320312 C 73.859375 113.777344 71.042969 109.433594 70.449219 104.542969 C 69.855469 99.648438 71.550781 94.757812 75.039062 91.28125 L 91.28125 75.039062 C 94.757812 71.550781 99.648438 69.855469 104.542969 70.449219 C 109.433594 71.042969 113.777344 73.859375 116.320312 78.078125 L 153.28125 139.601562 C 162.507812 134.800781 173.492188 134.800781 182.71875 139.601562 L 219.679688 78.078125 C 222.222656 73.859375 226.566406 71.042969 231.457031 70.449219 C 236.351562 69.855469 241.242188 71.550781 244.71875 75.039062 L 260.960938 91.28125 C 264.449219 94.757812 266.144531 99.648438 265.550781 104.542969 C 264.957031 109.433594 262.140625 113.777344 257.921875 116.320312 L 188.398438 153.28125 C 190.777344 157.820312 192.015625 162.875 192 168 L 312 168 C 312 88.472656 247.527344 24 168 24 Z M 168 24 " style=" stroke:none;fill-rule:nonzero;fill:rgb(57.254902%,58.039216%,58.823529%);fill-opacity:1;" />
<path d="M 153.28125 139.601562 L 116.320312 78.078125 C 113.777344 73.859375 109.433594 71.042969 104.542969 70.449219 C 99.648438 69.855469 94.757812 71.550781 91.28125 75.039062 L 75.039062 91.28125 C 71.550781 94.757812 69.855469 99.648438 70.449219 104.542969 C 71.042969 109.433594 73.859375 113.777344 78.078125 116.320312 L 139.601562 153.28125 C 142.652344 147.425781 147.425781 142.652344 153.28125 139.601562 Z M 153.28125 139.601562 " style=" stroke:none;fill-rule:nonzero;fill:rgb(68.627451%,70.588235%,94.509804%);fill-opacity:1;" />
<path d="M 139.601562 182.71875 L 78.078125 219.679688 C 73.859375 222.222656 71.042969 226.566406 70.449219 231.457031 C 69.855469 236.351562 71.550781 241.242188 75.039062 244.71875 L 91.28125 260.960938 C 94.757812 264.449219 99.648438 266.144531 104.542969 265.550781 C 109.433594 264.957031 113.777344 262.140625 116.320312 257.921875 L 152 198.480469 L 153.28125 196.398438 C 152.878906 196.160156 152.398438 187.921875 152 187.679688 C 146.71875 184.640625 142.398438 188.160156 139.601562 182.71875 Z M 139.601562 182.71875 " style=" stroke:none;fill-rule:nonzero;fill:rgb(63.137255%,65.490196%,93.72549%);fill-opacity:1;" />
<path d="M 184 187.679688 C 183.601562 187.921875 183.121094 196.160156 182.71875 196.398438 L 184 198.480469 L 219.679688 257.921875 C 222.222656 262.140625 226.566406 264.957031 231.457031 265.550781 C 236.351562 266.144531 241.242188 264.449219 244.71875 260.960938 L 260.960938 244.71875 C 264.449219 241.242188 266.144531 236.351562 265.550781 231.457031 C 264.957031 226.566406 262.140625 222.222656 257.921875 219.679688 L 196.398438 182.71875 C 193.601562 188.160156 189.28125 184.640625 184 187.679688 Z M 184 187.679688 " style=" stroke:none;fill-rule:nonzero;fill:rgb(63.137255%,65.490196%,93.72549%);fill-opacity:1;" />
<path d="M 196.398438 153.28125 L 257.921875 116.320312 C 262.140625 113.777344 264.957031 109.433594 265.550781 104.542969 C 266.144531 99.648438 264.449219 94.757812 260.960938 91.28125 L 244.71875 75.039062 C 241.242188 71.550781 236.351562 69.855469 231.457031 70.449219 C 226.566406 71.042969 222.222656 73.859375 219.679688 78.078125 L 182.71875 139.601562 C 188.574219 142.652344 193.347656 147.425781 196.398438 153.28125 Z M 196.398438 153.28125 " style=" stroke:none;fill-rule:nonzero;fill:rgb(68.627451%,70.588235%,94.509804%);fill-opacity:1;" />
<path d="M 196.398438 153.28125 C 193.347656 147.425781 188.574219 142.652344 182.71875 139.601562 C 173.492188 134.800781 162.507812 134.800781 153.28125 139.601562 C 147.425781 142.652344 142.652344 147.425781 139.601562 153.28125 C 137.222656 157.820312 135.984375 162.875 136 168 L 200 168 C 200.015625 162.875 198.777344 157.820312 196.398438 153.28125 Z M 196.398438 153.28125 " style=" stroke:none;fill-rule:nonzero;fill:rgb(63.137255%,65.490196%,93.72549%);fill-opacity:1;" />
<path d="M 152 195.679688 C 152.398438 195.921875 152.878906 196.160156 153.28125 196.398438 C 162.507812 201.199219 173.492188 201.199219 182.71875 196.398438 C 183.121094 196.160156 183.601562 195.921875 184 195.679688 C 193.890625 189.96875 199.988281 179.421875 200 168 L 136 168 C 136.011719 179.421875 142.109375 189.96875 152 195.679688 Z M 152 195.679688 " style=" stroke:none;fill-rule:nonzero;fill:rgb(52.54902%,54.509804%,78.039216%);fill-opacity:1;" />
</g>
</svg>