<svg height="512pt" viewBox="0 -71 512.00002 512" width="512pt" xmlns="http://www.w3.org/2000/svg"><path d="m494.34375 0h-476.6875c-9.75 0-17.65625 7.90625-17.65625 17.65625v300.136719c0 9.75 7.90625 17.65625 17.65625 17.65625h476.6875c9.75 0 17.65625-7.90625 17.65625-17.65625v-300.136719c0-9.75-7.90625-17.65625-17.65625-17.65625zm-326.621094 300.136719c-73.128906 0-132.414062-59.28125-132.414062-132.410157 0-73.132812 59.285156-132.414062 132.414062-132.414062 73.132813 0 132.414063 59.28125 132.414063 132.414062 0 73.128907-59.28125 132.410157-132.414063 132.410157zm308.96875-176.550781v150.070312c0 9.75-7.90625 17.65625-17.65625 17.65625h-105.929687c-9.753907 0-17.65625-7.90625-17.65625-17.65625v-211.863281c0-9.75 7.902343-17.65625 17.65625-17.65625h105.929687c9.75 0 17.65625 7.90625 17.65625 17.65625zm0 0" fill="#acabb1"/><path d="m335.449219 273.65625c0 9.75 7.902343 17.65625 17.65625 17.65625h105.929687c9.75 0 17.65625-7.90625 17.65625-17.65625v-61.792969h-141.242187zm0 0" fill="#ff9478"/><path d="m335.449219 123.585938h141.242187v88.277343h-141.242187zm0 0" fill="#ffc477"/><path d="m459.035156 44.136719h-105.929687c-9.753907 0-17.65625 7.90625-17.65625 17.65625v61.792969h141.242187v-61.792969c0-9.75-7.90625-17.65625-17.65625-17.65625zm0 0" fill="#ff9478"/><path d="m44.136719 335.449219h70.621093v35.308593h-70.621093zm0 0" fill="#57565c"/><path d="m397.242188 335.449219h70.621093v35.308593h-70.621093zm0 0" fill="#57565c"/><path d="m167.722656 35.308594c-73.128906 0-132.414062 59.285156-132.414062 132.414062 0 73.132813 59.285156 132.414063 132.414062 132.414063 73.132813 0 132.414063-59.28125 132.414063-132.414063 0-73.128906-59.28125-132.414062-132.414063-132.414062zm28.25 189.441406c-15.695312-8.003906-27.085937-22.492188-31.160156-39.636719-5.199219-.84375-9.742188-3.988281-12.359375-8.5625l-76.445313 44.140625c-9.800781-16.863281 2.824219-42.460937 28.160157-57.027344 14.777343-9.578124 33.019531-12.160156 49.875-7.0625 3.355469-4.113281 8.375-6.511718 13.683593-6.53125v-88.277343c19.507813 0 35.308594 23.746093 35.308594 52.964843.871094 17.59375-5.996094 34.691407-18.800781 46.789063.785156 1.960937 1.175781 4.0625 1.148437 6.179687-.007812 3.097657-.828124 6.144532-2.386718 8.824219l76.449218 44.140625c-9.714843 16.859375-38.136718 18.710938-63.472656 4.058594zm0 0" fill="#ffeb99"/><g fill="#ff9478"><path d="m184.230469 161.546875c12.804687-12.101563 19.675781-29.195313 18.804687-46.789063 0-29.21875-15.800781-52.964843-35.3125-52.964843v88.277343c7.359375.011719 13.933594 4.585938 16.507813 11.476563zm0 0"/><path d="m154.042969 156.601562c-16.855469-5.097656-35.101563-2.515624-49.878907 7.0625-25.332031 14.566407-37.957031 40.164063-28.160156 57.027344l76.449219-44.140625c-3.6875-6.328125-3.054687-14.28125 1.589844-19.949219zm0 0"/><path d="m167.722656 185.378906c-.976562 0-1.949218-.089844-2.910156-.265625 4.074219 17.140625 15.464844 31.632813 31.160156 39.636719 25.335938 14.652344 53.757813 12.800781 63.46875-4.0625l-76.445312-44.136719c-3.152344 5.457031-8.96875 8.820313-15.273438 8.828125zm0 0"/></g><path d="m182.996094 176.550781c1.554687-2.679687 2.378906-5.726562 2.382812-8.828125.03125-2.113281-.359375-4.214844-1.148437-6.179687-3.382813-9.113281-13.511719-13.757813-22.625-10.378907-2.964844 1.101563-5.578125 2.980469-7.566407 5.4375-6.132812 7.578126-4.960937 18.695313 2.617188 24.832032 2.359375 1.90625 5.164062 3.171875 8.152344 3.679687.960937.175781 1.9375.265625 2.914062.265625 6.304688-.007812 12.121094-3.371094 15.273438-8.828125zm0 0" fill="#ffa733"/><path d="m44.136719 335.449219h70.621093v8.828125h-70.621093zm0 0" fill="#3e3d42"/><path d="m397.242188 335.449219h70.621093v8.828125h-70.621093zm0 0" fill="#3e3d42"/></svg>