<svg height="512pt" viewBox="0 -68 512.00067 512" width="512pt" xmlns="http://www.w3.org/2000/svg"><path d="m486.398438 0h-460.796876c-14.140624 0-25.601562 11.460938-25.601562 25.601562v290.132813c0 14.136719 11.460938 25.601563 25.601562 25.601563h17.066407v25.597656c0 4.714844 3.820312 8.535156 8.53125 8.535156h68.265625c4.714844 0 8.535156-3.820312 8.535156-8.535156v-25.597656h256v25.597656c0 4.714844 3.820312 8.535156 8.535156 8.535156h68.265625c4.710938 0 8.53125-3.820312 8.53125-8.535156v-25.597656h17.070313c14.136718 0 25.597656-11.464844 25.597656-25.601563v-290.132813c0-14.140624-11.460938-25.601562-25.601562-25.601562zm-375.464844 358.402344h-51.199219v-17.070313h51.199219zm341.332031 0h-51.199219v-17.070313h51.199219zm42.667969-42.667969c0 4.710937-3.820313 8.53125-8.535156 8.53125h-460.796876c-4.714843 0-8.535156-3.820313-8.535156-8.53125v-290.132813c0-4.714843 3.820313-8.535156 8.535156-8.535156h460.796876c4.714843 0 8.535156 3.820313 8.535156 8.535156zm0 0"/><path d="m452.265625 42.667969h-102.398437c-14.140626 0-25.601563 11.460937-25.601563 25.597656v204.800781c0 14.140625 11.460937 25.601563 25.601563 25.601563h102.398437c14.140625 0 25.601563-11.460938 25.601563-25.601563v-204.800781c0-14.136719-11.460938-25.597656-25.601563-25.597656zm-110.933594 93.867187h119.46875v68.265625h-119.46875zm8.535157-76.800781h102.398437c4.714844 0 8.535156 3.820313 8.535156 8.53125v51.203125h-119.46875v-51.203125c0-4.710937 3.820313-8.53125 8.535157-8.53125zm102.398437 221.867187h-102.398437c-4.714844 0-8.535157-3.820312-8.535157-8.535156v-51.199218h119.46875v51.199218c0 4.714844-3.820312 8.535156-8.535156 8.535156zm0 0"/><path d="m170.667969 34.132812c-75.40625 0-136.535157 61.128907-136.535157 136.535157s61.128907 136.53125 136.535157 136.53125c75.402343 0 136.53125-61.125 136.53125-136.53125-.089844-75.367188-61.164063-136.445313-136.53125-136.535157zm0 256c-65.980469 0-119.46875-53.484374-119.46875-119.464843s53.488281-119.46875 119.46875-119.46875c65.976562 0 119.464843 53.488281 119.464843 119.46875-.070312 65.949219-53.515624 119.394531-119.464843 119.464843zm0 0"/><path d="m196.265625 170.667969c-.027344-1.027344-.117187-2.050781-.273437-3.0625 11.660156-13.277344 17.855468-30.476563 17.339843-48.136719 0-33.496094-18.773437-59.734375-42.664062-59.734375-4.714844 0-8.535157 3.820313-8.535157 8.53125v78.4375c-2.464843.839844-4.789062 2.054687-6.886718 3.601563-17.300782-3.46875-35.273438-.238282-50.285156 9.039062-15.792969 8.425781-27.714844 22.632812-33.28125 39.644531-2.742188 9.078125-1.683594 18.878907 2.9375 27.160157 2.359374 4.066406 7.566406 5.457031 11.636718 3.109374l67.894532-39.203124c1.933593 1.710937 4.125 3.109374 6.492187 4.148437 5.683594 16.710937 17.503906 30.644531 33.066406 38.980469 11.378907 6.753906 24.316407 10.4375 37.546875 10.691406 4.546875.019531 9.074219-.554688 13.472656-1.707031 9.210938-2.160157 17.152344-7.953125 22.019532-16.0625 2.347656-4.078125.949218-9.289063-3.125-11.648438l-67.933594-39.25c.324219-1.492187.519531-3.011719.578125-4.539062zm-27.015625 8.386719c-4.625-.753907-7.757812-5.113282-7.003906-9.738282.238281-1.460937.855468-2.832031 1.789062-3.984375 2.921875-3.667969 8.261719-4.277343 11.929688-1.355469 1.277344 1.011719 2.234375 2.375 2.757812 3.917969.34375.882813.503906 1.824219.476563 2.773438.003906 1.496093-.386719 2.96875-1.132813 4.265625-.414062.683594-.910156 1.316406-1.476562 1.878906-.351563.3125-.726563.597656-1.117188.851562-.21875.167969-.441406.324219-.675781.46875-.488281.265626-1 .480469-1.527344.640626-.195312.066406-.382812.136718-.589843.1875-.484376.105468-.972657.167968-1.46875.195312-.566407.0625-1.136719.0625-1.707032 0-.074218-.082031-.132812-.074219-.253906-.101562zm9.949219-99.695313c9.832031 5.972656 17.066406 21.964844 17.066406 40.109375.214844 11.253906-2.863281 22.332031-8.855469 31.863281-.238281-.207031-.519531-.351562-.769531-.554687-.78125-.628906-1.601563-1.214844-2.449219-1.75-.433594-.273438-.851562-.53125-1.3125-.777344-.902344-.484375-1.828125-.917969-2.78125-1.289062-.308594-.128907-.589844-.308594-.898437-.417969zm-91.859375 129.570313c.070312-1.871094.355468-3.730469.851562-5.535157 4.449219-12.59375 13.484375-23.042969 25.300782-29.261719 8.742187-5.214843 18.675781-8.097656 28.851562-8.371093 1.074219 0 2.144531 0 3.175781.117187v.214844c-.289062 1.507812-.441406 3.039062-.453125 4.574219.003906 1.570312.148438 3.140625.433594 4.683593zm152.941406 16.769531c-13.15625 2.515625-26.78125-.097657-38.066406-7.3125-9.855469-5.402344-17.910156-13.574219-23.160156-23.511719 1.53125-.53125 3.007812-1.207031 4.410156-2.019531h.054687c1.355469-.785157 2.636719-1.699219 3.820313-2.722657l58.128906 33.5625c-1.644531.871094-3.382812 1.542969-5.1875 2.003907zm0 0"/></svg>