<?xml version="1.0" encoding="iso-8859-1"?>
<!-- Generator: Adobe Illustrator 19.0.0, SVG Export Plug-In . SVG Version: 6.00 Build 0)  -->
<svg version="1.1" id="Capa_1" xmlns="http://www.w3.org/2000/svg" xmlns:xlink="http://www.w3.org/1999/xlink" x="0px" y="0px"
	 viewBox="0 0 464 464" style="enable-background:new 0 0 464 464;" xml:space="preserve">
<circle style="fill:#696969;" cx="232" cy="232" r="232"/>
<circle style="fill:#C7C7C7;" cx="232" cy="232" r="184"/>
<circle style="fill:#DEDEDE;" cx="232" cy="232" r="160"/>
<path style="fill:#88B337;" d="M216,320h32c13.255,0,24,10.745,24,24l0,0c0,13.255-10.745,24-24,24h-32c-13.255,0-24-10.745-24-24
	l0,0C192,330.745,202.745,320,216,320z"/>
<path style="fill:#4398D1;" d="M100.744,291.296c-32.721-72.53-0.449-157.852,72.08-190.573
	c13.401-6.046,27.649-10.005,42.248-11.739l1.856,15.888c-70.243,8.378-120.395,72.112-112.018,142.356
	c1.544,12.95,5.057,25.587,10.418,37.476L100.744,291.296z"/>
<path style="fill:#DE4C3C;" d="M363.256,291.296l-14.576-6.592c29.075-64.49,0.366-140.339-64.124-169.414
	c-11.889-5.36-24.527-8.873-37.476-10.418l1.856-15.888c79.013,9.392,135.451,81.058,126.059,160.071
	C373.26,263.652,369.301,277.897,363.256,291.296L363.256,291.296z"/>
<circle style="fill:#4398D1;" cx="128" cy="320" r="16"/>
<circle style="fill:#DE4C3C;" cx="336" cy="320" r="16"/>
<path style="fill:#4398D1;" d="M289.888,220.416l-18.656,5L248,212l23.232-13.416l18.656,5l4.144-15.448l-14.136-3.792l3.792-14.136
	l-15.456-4.136l-5,18.656L240,198.144v-26.832l13.656-13.656l-11.312-11.312L232,156.688l-10.344-10.344l-11.312,11.312L224,171.312
	v26.832l-23.232-13.416l-5-18.656l-15.456,4.136l3.792,14.136l-14.136,3.792l4.144,15.448l18.656-5L216,212l-23.232,13.416
	l-18.656-5l-4.144,15.448l14.136,3.792l-3.792,14.136l15.456,4.136l5-18.656L224,225.856v26.832l-13.656,13.656l11.312,11.312
	L232,267.312l10.344,10.344l11.312-11.312L240,252.688v-26.832l23.232,13.416l5,18.656l15.456-4.136l-3.792-14.136l14.136-3.792
	L289.888,220.416z"/>
<g>
	<path style="fill:#585859;" d="M224,0h16v48h-16V0z"/>
	<path style="fill:#585859;" d="M224,416h16v48h-16V416z"/>
	<path style="fill:#585859;" d="M0,224h48v16H0V224z"/>
	<path style="fill:#585859;" d="M416,224h48v16h-48V224z"/>
	<path style="fill:#585859;" d="M62.295,73.612l11.314-11.314l33.936,33.936l-11.314,11.314L62.295,73.612z"/>
	<path style="fill:#585859;" d="M356.456,367.726l11.314-11.314l33.936,33.936l-11.314,11.314L356.456,367.726z"/>
	<path style="fill:#585859;" d="M62.298,390.392l33.936-33.936l11.314,11.314l-33.936,33.936L62.298,390.392z"/>
	<path style="fill:#585859;" d="M356.453,96.23l33.936-33.936l11.314,11.314l-33.936,33.936L356.453,96.23z"/>
</g>
<g>
</g>
<g>
</g>
<g>
</g>
<g>
</g>
<g>
</g>
<g>
</g>
<g>
</g>
<g>
</g>
<g>
</g>
<g>
</g>
<g>
</g>
<g>
</g>
<g>
</g>
<g>
</g>
<g>
</g>
</svg>
