<?xml version="1.0" standalone="no"?>
<!DOCTYPE svg PUBLIC "-//W3C//DTD SVG 20010904//EN"
 "http://www.w3.org/TR/2001/REC-SVG-20010904/DTD/svg10.dtd">
<svg version="1.0" xmlns="http://www.w3.org/2000/svg"
 width="380.000000pt" height="380.000000pt" viewBox="0 0 380.000000 380.000000"
 preserveAspectRatio="xMidYMid meet">

<g transform="translate(0.000000,380.000000) scale(0.100000,-0.100000)"
fill="#000000" stroke="none">
<path d="M817 3239 c-104 -25 -212 -111 -260 -209 -138 -283 80 -605 392 -577
49 5 86 16 143 45 l76 39 137 -137 c114 -115 134 -138 122 -149 -25 -20 -85
-152 -101 -221 -36 -152 -5 -325 83 -454 l29 -44 -137 -136 -136 -136 -35 23
c-67 45 -129 62 -225 62 -80 0 -97 -4 -157 -32 -165 -77 -261 -257 -230 -425
59 -316 425 -445 661 -232 117 105 159 263 111 418 -11 36 -25 68 -31 72 -7 4
48 66 131 149 l142 143 44 -30 c184 -124 448 -128 631 -9 l60 39 143 -143 c83
-83 138 -145 131 -149 -18 -12 -51 -136 -51 -195 0 -354 429 -533 679 -282 89
89 133 218 113 338 -23 137 -106 247 -230 306 -60 28 -77 32 -157 32 -96 0
-158 -17 -225 -62 l-35 -23 -136 136 -137 136 30 44 c193 286 85 692 -226 848
-184 93 -415 82 -581 -28 l-52 -34 -137 137 -137 137 27 80 c51 153 19 302
-90 409 -106 106 -241 146 -379 114z m247 -63 c74 -36 141 -103 174 -174 23
-49 27 -70 27 -152 0 -82 -4 -103 -27 -152 -34 -73 -98 -137 -174 -174 -52
-25 -70 -29 -149 -29 -77 0 -98 4 -147 27 -79 37 -142 98 -181 177 -29 59 -32
75 -32 151 0 70 5 95 27 141 45 99 127 171 231 205 68 22 183 13 251 -20z
m965 -742 c99 -24 177 -70 257 -149 107 -106 164 -239 164 -385 0 -299 -253
-551 -553 -550 -296 1 -546 251 -547 547 0 149 54 280 162 387 143 142 329
196 517 150z m-967 -1156 c72 -33 142 -103 176 -176 23 -49 27 -70 27 -152 0
-82 -4 -103 -27 -152 -34 -73 -103 -142 -176 -176 -49 -23 -70 -27 -147 -27
-78 0 -98 4 -152 29 -76 35 -144 104 -181 184 -22 48 -27 71 -27 142 0 102 27
170 96 245 103 111 274 146 411 83z m1970 0 c79 -36 142 -98 181 -177 29 -59
32 -75 32 -151 0 -71 -5 -95 -27 -142 -37 -80 -105 -149 -181 -184 -54 -25
-74 -29 -152 -29 -79 0 -97 4 -149 29 -201 99 -268 349 -143 532 39 57 138
128 200 143 71 17 176 8 239 -21z"/>
<path d="M780 2850 l0 -181 33 3 32 3 3 78 3 78 62 -3 62 -3 3 -78 3 -78 32 3
32 3 0 175 0 175 -32 3 -33 3 0 -70 0 -71 -65 0 -64 0 -3 68 -3 67 -32 3 -33
3 0 -181z"/>
<path d="M1701 2166 c-8 -9 -11 -91 -9 -277 3 -246 4 -264 21 -267 10 -2 29
-1 43 2 l24 6 0 203 0 202 100 -185 c55 -102 111 -195 125 -207 29 -26 62 -29
88 -10 16 11 17 37 15 277 -3 247 -4 265 -21 268 -10 2 -29 1 -43 -2 l-24 -6
-2 -190 -3 -189 -100 186 c-72 134 -106 188 -123 194 -34 13 -78 11 -91 -5z"/>
<path d="M780 950 l0 -181 33 3 32 3 3 78 3 77 64 0 65 0 0 -81 0 -80 33 3 32
3 0 175 0 175 -32 3 -33 3 0 -70 0 -71 -65 0 -64 0 -3 68 -3 67 -32 3 -33 3 0
-181z"/>
<path d="M2754 1117 c-2 -7 -3 -87 -2 -177 l3 -165 33 -3 32 -3 0 80 0 81 65
0 64 0 3 -77 3 -78 33 -3 32 -3 0 181 0 181 -32 -3 -33 -3 -3 -67 -3 -68 -64
0 -65 0 0 70 0 70 -30 0 c-17 0 -33 -6 -36 -13z"/>
</g>
</svg>
