<?xml version="1.0" encoding="iso-8859-1"?>
<!-- Generator: Adobe Illustrator 19.0.0, SVG Export Plug-In . SVG Version: 6.00 Build 0)  -->
<svg version="1.1" id="Layer_1" xmlns="http://www.w3.org/2000/svg" xmlns:xlink="http://www.w3.org/1999/xlink" x="0px" y="0px"
	 viewBox="0 0 512 512" style="enable-background:new 0 0 512 512;" xml:space="preserve">
<path style="fill:#809DED;" d="M489.739,489.739H389.565V22.261h100.174V489.739z"/>
<path style="fill:#ABC5FF;" d="M456.348,489.739h-66.783V22.261h66.783V489.739z"/>
<path style="fill:#5D7EAC;" d="M300.522,356.174h33.391v33.391h-33.391c-6.147,0-11.13-4.983-11.13-11.13v-11.13
	C289.391,361.157,294.374,356.174,300.522,356.174z M300.522,122.435c-6.147,0-11.13,4.983-11.13,11.13v11.13
	c0,6.147,4.983,11.13,11.13,11.13h33.391v-33.391H300.522z"/>
<path style="fill:#344966;" d="M367.304,189.217v133.565H222.609V189.217H367.304z M322.783,378.435h-33.391
	c0,6.147,4.983,11.13,11.13,11.13h33.391v-33.391h-11.13V378.435z M300.522,155.826h33.391v-33.391h-11.13v22.261h-33.391
	C289.391,150.843,294.374,155.826,300.522,155.826z"/>
<path style="fill:#5D7EAC;" d="M512,11.13v22.261c0,6.147-4.983,11.13-11.13,11.13H378.435c-6.147,0-11.13-4.983-11.13-11.13V11.13
	c0-6.147,4.983-11.13,11.13-11.13H500.87C507.017,0,512,4.983,512,11.13z M500.87,467.478H378.435c-6.147,0-11.13,4.983-11.13,11.13
	v22.261c0,6.147,4.983,11.13,11.13,11.13H500.87c6.147,0,11.13-4.983,11.13-11.13v-22.261
	C512,472.461,507.017,467.478,500.87,467.478z M500.87,111.304H356.174v77.913H222.609v89.043h133.565v122.435H500.87
	c6.147,0,11.13-4.983,11.13-11.13v-267.13C512,116.287,507.017,111.304,500.87,111.304z"/>
<path style="fill:#809DED;" d="M356.174,411.826h-22.261c-6.147,0-11.13-4.983-11.13-11.13V111.304c0-6.147,4.983-11.13,11.13-11.13
	h22.261c6.147,0,11.13,4.983,11.13,11.13v289.391C367.304,406.843,362.321,411.826,356.174,411.826z"/>
<g>
	<path style="fill:#344966;" d="M512,122.435v267.13c0,6.147-4.983,11.13-11.13,11.13h-44.522V111.304h44.522
		C507.017,111.304,512,116.287,512,122.435z M500.87,467.478h-44.522V512h44.522c6.147,0,11.13-4.983,11.13-11.13v-22.261
		C512,472.461,507.017,467.478,500.87,467.478z M500.87,0h-44.522v44.522h44.522c6.147,0,11.13-4.983,11.13-11.13V11.13
		C512,4.983,507.017,0,500.87,0z"/>
	<path style="fill:#344966;" d="M256,166.957v22.261v44.522v44.522v44.522v22.261c0,12.295-9.966,22.261-22.261,22.261H22.261
		v-44.522v-44.522v-44.522v-44.522v-44.522h211.478C246.034,144.696,256,154.662,256,166.957z"/>
</g>
<path style="fill:#5D7EAC;" d="M44.522,189.217H256v22.261H44.522v22.261H256V256H44.522v22.261H256v22.261H44.522v22.261H256
	v22.261H44.522v22.261H22.261C9.966,367.304,0,357.338,0,345.043V166.957c0-12.295,9.966-22.261,22.261-22.261h22.261h189.217
	c12.295,0,22.261,9.966,22.261,22.261H44.522V189.217z"/>
<g>
</g>
<g>
</g>
<g>
</g>
<g>
</g>
<g>
</g>
<g>
</g>
<g>
</g>
<g>
</g>
<g>
</g>
<g>
</g>
<g>
</g>
<g>
</g>
<g>
</g>
<g>
</g>
<g>
</g>
</svg>
