<?xml version="1.0" standalone="no"?>
<!DOCTYPE svg PUBLIC "-//W3C//DTD SVG 20010904//EN"
 "http://www.w3.org/TR/2001/REC-SVG-20010904/DTD/svg10.dtd">
<svg version="1.0" xmlns="http://www.w3.org/2000/svg"
 width="1441.000000pt" height="1521.000000pt" viewBox="0 0 1441.000000 1521.000000"
 preserveAspectRatio="xMidYMid meet">

<g transform="translate(0.000000,1521.000000) scale(0.100000,-0.100000)"
fill="#000000" stroke="none">
<path d="M2927 15174 c-807 -125 -1458 -715 -1651 -1494 -65 -261 -59 96 -63
-4145 l-4 -3850 -47 -35 c-78 -59 -342 -328 -436 -445 -399 -500 -632 -1070
-696 -1695 -14 -135 -14 -485 0 -620 83 -821 473 -1571 1095 -2107 500 -431
1117 -696 1780 -763 61 -7 198 -12 305 -12 496 0 941 102 1385 316 870 420
1500 1205 1724 2146 64 270 76 383 76 730 0 347 -12 460 -76 730 -161 677
-541 1289 -1076 1732 l-33 26 -3 3849 c-3 3547 -5 3855 -20 3943 -42 235 -100
416 -194 605 -295 590 -849 991 -1508 1090 -125 19 -436 18 -558 -1z m559
-394 c663 -114 1190 -641 1304 -1304 17 -99 20 -163 20 -397 l0 -278 -922 -3
c-922 -3 -923 -3 -963 -24 -71 -38 -105 -95 -105 -174 0 -79 34 -136 105 -174
40 -21 41 -21 963 -24 l922 -3 0 -599 0 -599 -922 -3 c-880 -3 -925 -4 -958
-22 -75 -40 -110 -96 -110 -176 0 -80 35 -136 110 -176 33 -18 78 -19 958 -22
l922 -3 0 -599 0 -600 -1600 0 -1600 0 3 1923 2 1922 27 105 c54 215 126 382
237 545 234 348 593 590 998 674 132 28 134 28 325 30 126 1 194 -4 284 -19z
m1324 -6180 l0 -599 -922 -3 c-880 -3 -925 -4 -958 -22 -75 -40 -110 -96 -110
-176 0 -79 34 -136 105 -174 40 -21 41 -21 963 -24 l922 -3 0 -599 0 -599
-922 -3 c-880 -3 -925 -4 -958 -22 -75 -40 -110 -96 -110 -176 0 -80 35 -136
110 -176 33 -18 78 -19 958 -22 l922 -3 0 -243 0 -243 128 -104 c331 -268 580
-568 758 -914 217 -418 314 -819 314 -1290 0 -367 -51 -656 -177 -999 -85
-233 -269 -554 -439 -766 -97 -120 -310 -332 -434 -430 -423 -336 -934 -546
-1459 -599 -133 -14 -449 -14 -582 0 -525 53 -1035 263 -1459 599 -124 98
-338 310 -434 430 -173 216 -355 536 -445 782 -119 325 -171 621 -171 978 0
282 21 453 86 708 91 360 281 739 522 1042 103 130 311 335 465 460 l127 103
0 1843 0 1844 1600 0 1600 0 0 -600z"/>
<path d="M12899 14253 c-602 -758 -1049 -1484 -1207 -1963 -89 -268 -97 -501
-26 -783 108 -428 393 -784 779 -971 352 -171 778 -171 1130 0 385 187 667
537 778 969 53 203 63 436 27 600 -83 377 -354 897 -797 1529 -206 295 -553
746 -573 746 -6 0 -56 -57 -111 -127z m222 -635 c449 -616 792 -1227 870
-1555 30 -123 23 -322 -15 -468 -37 -138 -127 -318 -213 -425 -196 -243 -455
-370 -753 -370 -298 0 -557 127 -753 370 -86 107 -176 287 -213 425 -38 144
-45 344 -15 468 44 187 194 509 382 822 151 254 577 875 599 875 4 0 54 -64
111 -142z"/>
<path d="M9208 11323 c-666 -890 -1188 -1703 -1538 -2398 -387 -768 -499
-1206 -435 -1701 137 -1052 903 -1858 1902 -2000 140 -20 406 -20 546 0 674
96 1251 492 1602 1101 205 354 315 765 315 1175 0 371 -117 752 -420 1365
-287 581 -711 1268 -1252 2028 -188 263 -507 687 -518 687 -5 0 -96 -116 -202
-257z m366 -599 c533 -744 974 -1458 1261 -2039 176 -356 268 -588 332 -835
32 -121 36 -152 40 -305 5 -172 -3 -273 -33 -425 -159 -788 -764 -1390 -1511
-1505 -153 -24 -454 -17 -592 13 -597 131 -1090 557 -1321 1144 -102 258 -145
497 -137 768 4 159 8 188 40 310 113 438 393 1017 855 1770 272 443 878 1326
905 1317 6 -2 79 -98 161 -213z"/>
<path d="M12327 5093 c-188 -224 -486 -610 -679 -883 -460 -650 -759 -1235
-818 -1603 -18 -109 -7 -373 19 -495 74 -336 216 -598 456 -838 142 -142 249
-221 418 -305 425 -214 945 -215 1369 -3 166 82 282 167 424 309 237 236 382
503 455 837 26 122 37 386 19 495 -59 367 -358 954 -818 1603 -253 356 -735
970 -762 970 -5 0 -42 -39 -83 -87z m97 -527 c631 -807 1053 -1506 1162 -1925
19 -73 24 -118 24 -211 0 -398 -191 -772 -515 -1011 -95 -70 -271 -154 -391
-186 -91 -25 -114 -27 -294 -27 -181 0 -202 2 -295 27 -117 32 -313 125 -400
191 -208 158 -373 390 -449 634 -62 199 -74 420 -32 583 97 370 451 983 970
1674 138 184 199 264 205 264 2 1 9 -5 15 -13z"/>
</g>
</svg>
