<?xml version="1.0" standalone="no"?>
<!DOCTYPE svg PUBLIC "-//W3C//DTD SVG 20010904//EN"
 "http://www.w3.org/TR/2001/REC-SVG-20010904/DTD/svg10.dtd">
<svg version="1.0" xmlns="http://www.w3.org/2000/svg"
 width="200.000000pt" height="200.000000pt" viewBox="0 0 200.000000 200.000000"
 preserveAspectRatio="xMidYMid meet">

<g transform="translate(0.000000,200.000000) scale(0.100000,-0.100000)"
fill="#000000" stroke="none">
<path d="M761 1614 c-62 -79 25 -174 103 -113 34 27 34 68 0 108 -33 40 -74
42 -103 5z"/>
<path d="M1373 1590 c-39 -24 -53 -48 -53 -95 0 -71 41 -117 105 -117 43 0 72
17 95 55 32 51 26 103 -14 143 -40 40 -83 45 -133 14z"/>
<path d="M1006 1435 c-83 -29 -122 -93 -111 -180 8 -67 35 -103 119 -157 66
-42 115 -49 166 -23 62 32 75 105 39 221 -24 79 -65 129 -119 144 -44 12 -46
12 -94 -5z"/>
<path d="M563 1376 c-48 -22 -75 -71 -69 -123 7 -54 23 -79 62 -98 41 -19 156
-20 193 0 63 32 77 137 27 200 -22 28 -29 30 -102 32 -53 2 -90 -2 -111 -11z"/>
<path d="M323 1260 c-46 -18 -56 -74 -20 -108 46 -43 117 -14 117 46 0 46 -52
80 -97 62z"/>
<path d="M1561 1216 c-29 -31 -25 -73 10 -99 45 -33 99 -1 99 58 0 61 -67 86
-109 41z"/>
<path d="M500 1051 c-19 -10 -48 -35 -65 -56 -26 -32 -30 -45 -30 -100 0 -71
17 -103 75 -142 39 -27 116 -31 159 -8 65 33 108 120 95 191 -8 46 -48 92 -99
115 -51 24 -91 24 -135 0z"/>
<path d="M1324 1060 c-47 -19 -70 -93 -41 -131 32 -42 81 -49 121 -18 57 45
52 119 -10 145 -38 16 -41 16 -70 4z"/>
<path d="M872 960 c-66 -41 -84 -103 -62 -219 16 -86 36 -117 93 -146 28 -14
63 -25 78 -25 94 0 183 102 163 187 -4 15 -28 63 -53 106 -36 61 -55 82 -87
97 -51 25 -90 25 -132 0z"/>
<path d="M1300 802 c-26 -8 -60 -45 -60 -64 0 -30 19 -58 46 -68 34 -13 82 12
90 47 12 47 -34 99 -76 85z"/>
<path d="M560 570 c-41 -41 -34 -101 16 -120 30 -12 67 1 88 32 22 32 20 55
-9 83 -29 30 -68 32 -95 5z"/>
<path d="M1362 477 c-44 -47 -17 -117 46 -117 29 0 72 42 72 70 0 28 -43 70
-73 70 -13 0 -33 -10 -45 -23z"/>
</g>
</svg>
