<svg class="svg-icon" style="width: 1em; height: 1em;vertical-align: middle;fill: currentColor;overflow: hidden;" viewBox="0 0 1024 1024" version="1.1" xmlns="http://www.w3.org/2000/svg"><path d="M107.9 268.8m-35.5 0a35.5 35.5 0 1 0 71 0 35.5 35.5 0 1 0-71 0Z" fill="" /><path d="M298.1 233.7m-51.2 0a51.2 51.2 0 1 0 102.4 0 51.2 51.2 0 1 0-102.4 0Z" fill="" /><path d="M171.4 412.3m-51.2 0a51.2 51.2 0 1 0 102.4 0 51.2 51.2 0 1 0-102.4 0Z" fill="" /><path d="M399.9 412.3m-25.8 0a25.8 25.8 0 1 0 51.6 0 25.8 25.8 0 1 0-51.6 0Z" fill="" /><path d="M603 412.3m-76.6 0a76.6 76.6 0 1 0 153.2 0 76.6 76.6 0 1 0-153.2 0Z" fill="" /><path d="M806.1 412.3m-51.2 0a51.2 51.2 0 1 0 102.4 0 51.2 51.2 0 1 0-102.4 0Z" fill="" /><path d="M501 258.2m-25.8 0a25.8 25.8 0 1 0 51.6 0 25.8 25.8 0 1 0-51.6 0Z" fill="" /><path d="M703.9 208.3m-51.2 0a51.2 51.2 0 1 0 102.4 0 51.2 51.2 0 1 0-102.4 0Z" fill="" /><path d="M882.3 233.7m-25.8 0a25.8 25.8 0 1 0 51.6 0 25.8 25.8 0 1 0-51.6 0Z" fill="" /><path d="M297.4 588.7m-76.6 0a76.6 76.6 0 1 0 153.2 0 76.6 76.6 0 1 0-153.2 0Z" fill="" /><path d="M501 588.7m-51.2 0a51.2 51.2 0 1 0 102.4 0 51.2 51.2 0 1 0-102.4 0Z" fill="" /><path d="M704.1 588.7m-25.8 0a25.8 25.8 0 1 0 51.6 0 25.8 25.8 0 1 0-51.6 0Z" fill="" /><path d="M94.3 588.7m-25.8 0a25.8 25.8 0 1 0 51.6 0 25.8 25.8 0 1 0-51.6 0Z" fill="" /><path d="M907.2 588.7m-51.2 0a51.2 51.2 0 1 0 102.4 0 51.2 51.2 0 1 0-102.4 0Z" fill="" /><path d="M830.6 766.4m-51.2 0a51.2 51.2 0 1 0 102.4 0 51.2 51.2 0 1 0-102.4 0Z" fill="" /><path d="M602.6 741.5m-25.8 0a25.8 25.8 0 1 0 51.6 0 25.8 25.8 0 1 0-51.6 0Z" fill="" /><path d="M399 816.7m-51.2 0a51.2 51.2 0 1 0 102.4 0 51.2 51.2 0 1 0-102.4 0Z" fill="" /><path d="M196.3 766.4m-25.8 0a25.8 25.8 0 1 0 51.6 0 25.8 25.8 0 1 0-51.6 0Z" fill="" /></svg>