<?xml version="1.0" encoding="UTF-8"?>
<svg viewBox="0 0 170 170" xmlns="http://www.w3.org/2000/svg">
 <g transform="translate(0 -882.36)" fill-rule="evenodd">
  <path d="m85.5,891.8372h1.8l.6.3h.6l.6.3 .6.3 .3.3 .6.3 .6.6 .3.3 .9.9 .3.6 .3.6 36.6,63.3 36.6,63.225 .3.9 .3.6 .6,1.2v1.5l.3.6-.3.6v1.5l-.6,1.2v.3l-.3.6-.3.3-.3.3-.3.6-.3.3-.3.3-.3.3-.3.6-.6.3-.6.3-.6.3-.3.3-.6.3h-.6l-.6.3h-150.3l-.6-.3h-.6l-.6-.3-.3-.3-.6-.3-.6-.3-.6-.3-.3-.6-.6-.3-.3-.6-.3-.3-.3-.6-.3-.3-.3-.3v-.6l-.3-.3v-.6l-.3-.3v-1.2l-.3-.9 .3-.6v-1.5l.3-.6 .6-1.2 .3-.6 36.6-63.525 36.3-63.3 .6-.6 .3-.6 .3-.6 .6-.3 .3-.6 .6-.3 .3-.3 .6-.3 .6-.3 .6-.3h.6l.6-.3h2.1" fill="#f9d100"/>
  <path d="m86.1,896.0372 .6.3 .6.3 .6.6 .6.3 .3.3 .3.3 .3.3 72.9,126.825 .3.3v.3l.3.3v.6l.3.3v.9l-.3.6-.3.9-.3.6-.6.6-.6.6-.6.3-.6.3h-.9v.3h-147.6l-.3-.3h-.6l-.3-.3h-.3l-.3-.3-.6-.6-.6-.6-.6-1.2-.3-.9v-.6l.3-.9 .3-.9v-.3h.3l72.9-126.825 .3-.3 .3-.3v-.3l.3-.3h.3l.6-.6h.3l.3-.3h.6l.3-.3h1.5zm61.8,125.325h-125.1l62.4-108.525 62.7,108.525" fill="#1f1a17"/>
  <path d="m45.9,981.4622 2.1,3.6-.3.3-.3.3-.3.3-.6.3-.3.3v.3l-.3.3 .3.3 .3.6 .3.3v.3h.3v.3l.3.3v.3l.3.6h1.2l.3-.3 .3-.3 .3-.3 .3-.3 .3.3 .3.3v.3l.3.3 .3.3v.3l.3.3v.3l.6.6h.3l.3.3h1.5l-6.6-14.1-1.8,3.3zm4.8-8.7 4.5,19.8 .6.3h.9l.6.3h.9l.9.3 12-56.025-7.8,13.8-.3,2.4-.3,2.1-.3,2.1-.3,2.1v2.1l-.3,2.1-.3,2.1-.3,2.1h-.3v-.3h-1.5l-.3.3h-1.8v3.825l-.3.3-.3.3h-.3l-.3.3v.3h-.3v3l.3.3v.3l.3.3h.3l.3.3 .3.3 .3.3h.3l.6.3h1.2l.6-.3-.3.9v2.1l-.3.9v.9l-.3.9v2.1l-.6-.3h-1.5l-.6-.3h-1.2l-.3.3-.3-2.1-.3-1.8-.6-1.8-.3-2.1-.6-3.6-.3-2.1-.3-1.8v-.3l-1.8,2.7zm2.4-3.9h.3l.3.3h1.5v-.3l.3-.525v-.3l-.3-.3v-.3l-.3-.3v-.3l-.3-.3-1.5,2.325zm4.5-7.725h.6l.3.3h.9l.3-.3 .3-.3 .3-.6v-.6l.3-.3v-.3l.3-.3v-.3h.3l.3-.6v-3.3l-3.9,6.6zm35.4-34.8-3.6,8.4-3.9,8.4-3.6,8.4-3.9,8.7-3.9,8.4-3.6,8.325-3.9,8.4-3.6,8.4 .3-.3h.3v-.3l.3-.3h.3l.3-.3 .3-.3 .3-.3v-.3h.3l.3-.3h.6v.3h1.5l.3.3h.3v.3h1.8v-.3l.3-.3v-.3h.3v-.3l.3-.3v-.3l.3-.3 .3-.3h.6l.3-.3 .3-.3 .3-.3 .3-.3v-.6l.3-.3-.3-.3-.3-.3v-.3h-.9l-.3.3-.3.6-.3.3v.6l-.9.9h-.9v-2.1h-.3l-.3-.3-.6-.6v-.9l.3-.3 .3-.6v-.3l29.4-48.525-2.7-5.4-8.7,15.3 7.8-16.5-1.8-3zm11.4,19.8-26.1,32.625 27.9-29.325-1.8-3.3zm5.4,9.3-43.8,43.125 .9-.3 47.1-35.325-4.2-7.5zm10.8,18.825v-.3l-.3-.3v-.3l-.3-.3v-.3l-.6.3h-.3l-.6.3-.3.3-.3.3h-.6l-.3.3-.6.3h-.6v-.3h-.3v-.6l.3-.3 .3-.3h.3l.3-.3 .3-.3 .6-.3 .3-.3h.3l.6-.3 .3-.3-.9-1.5-40.2,23.4 42.9-18.9h-.3zm6.6,11.1-53.1,12.3 1.5.3 54.6-7.2-3-5.4zm7.5,13.2-45.6,2.1 47.7,1.5-2.1-3.6zm6.9,11.7 1.2,2.4-72-9.9h-.3l68.7,3.3 1.5,2.7-14.7-.9 15.6,2.4zm-9.6,11.1-64.5-12.9h-.3v.3h-.3v.6h.3l-.6.3h-.3v.3h-.3v.3l-.3.3-.6.3v-.3h-1.5l18.9,10.8h10.8l-11.4-4.5v-.3h-.3l.3-.3h.3l.3-.3 .3-.3-.3-.3v-.3h-.6l-.3-.3h-1.5v.3h-.3v.6h-.9l-8.4-3.3h.3l.3.3h1.5l.3-.3h.3v-.6l-.3-.3-.3-.3-.9-.9 45.3,11.1h15zm-24,0-9.6-3.3v-.3h-2.1l-.3-.3h-1.2v-.3h-.9l-.3.3-.3.3h-.3v.3h-.3v.6l-.3.3 4.2,2.4h11.4zm-58.2-29.4h-.6v1.2h.3v.3h1.2v-.3l.3-.3h-.3v-.6h-.3v-.3h-.6zm-2.7.9 .3.3h.3l.3.3 .3.3v.6l-.3.3v.3h-.3l-.3.3h-.6l-.3-.3h-.3v-.3l-.3-.3v-.3l.3-.3 .3-.3 .3-.3 .3-.3zm18.9.9v-.9h.3l.3-.3h1.2v.3h.3v.9h-.6v.3h-1.2l-.3-.3zm.6-16.2h.6l.3.3v1.2h-.3v.3h-.3v.3h-.6l-.3-.3h-.6v-.6l.3-.3v-.6h.3v-.3h.3v-.3l.3.3zm1.8-7.2 .3-.3v-.3h.9l.3.3 .3.3v.9l-.3.3v.3l-.3.3v2.4h-.3l-.3.3h-1.2l-.3-.3-.3-.3v-.6h-.3v-.3l-.3-.3v-.9h.3v-.3h.3v-.3h.3v-.3l.6-.6v-.3h.3zm11.7.3v-.3h.6v-.3 .3h.3l.3.6 .3.3v.6l-.3.3v.3h-.3v.3h-.3l-.3.3-.3.3v.3l-.3.3-.3.3h-.6l-.6-.6v-1.5l.6-.6 .3-.3h.3v-.3h.3v-.3h.3zm-3.3-25.125v-.3l.3-.3h.9l.6.6h.6l.3-.3h1.5v.3h.6v.9l-.3.3v.6h-.3v.6h-.3v.9h-.3v.3l-.3.3-.6.6-.3.6-.6.6-.9.9-.3.6-.6.6-.3.6h-.3v.3h-.3l-.3.3h-.6l-.3-.3h-.3l-.3-.3-.3-.3-.3-.3-.3-.9-.3-.6v-1.2l.3-.3v-.3l.6-.3 .3-.3 .3-.6 .3-.3 .3-.3 .3-.6 .3-.3v-.6l.3-.3v-.3h.3v-.3h.3v-.3h.3zm15,4.5h1.8l.3-.3h.3l.6-.6 .3-.3 .3-.3h1.2l.3-.3v.3h.3v.6h.3v1.2h.3v.9l-.3.3v.3l-.3.3-.3.3v.3l-.3.3v.3l-.3.3v.3l-.6.6h-.3v.3h-.3v.3h-.6l-.3.3h-.3v.3h-.3v.3h-.3v.3h-.3l-.3.3h-2.1l-.3-.3h-.6l-.6-.6v-.3l-.3-.6v-1.8l.3-.3v-.6l.3-.6 .3-.6 .3-.3 .3-.3 .6-.3h.9zm9,35.025h.9l.3-.3h.3l.3-.3h.9v.3h.3l.3.3 .3.3h.3v.6l.3.3v.3h.3v.9h-.3v.3h-.3v.3h-.3v.3h-.3v.3h-.3v.3l-.3.3h-.3v.3h-.9l-.3-.3h-.6l-.3-.3h-.6l-.3.3h-2.1v-.3h-.3v-.6l-.3-.3v-.6l.3-.3 .3-.3 .6-.3 .3-.3 .3-.3h.3l.3-.3 .6-.3 .3-.3zm-25.8,9.3h.3v-.3h.9v.3h.6l.3.3h.9v.3h.3l.3.3v.6l-.3.3h-.3l-.3.3-.3-.3h-.6l-.3-.3h-.9l-.3-.3h-.6v-.3l-.3-.3h.3v-.3l.3-.3zm2.7,11.4 .3.3h.3v.3h.3l.3.3h.3v.3h.3v.9h-.3l-.3.3h-.3l-.3-.3v-.3h-.3l-.3-.3-.3-.3-.3-.3h-.3v-.6l.3-.3h.6zm7.8,4.2v-.3h.3v-.3h.9l.3.3h.6l.3.3h.6l.3.3h.3l.3.3v.6h-2.1l-.3-.3h-1.2v-.3l-.3-.3v-.3zm7.5-.3v-.3l-.3-.3v-.3l.3-.3 .3-.3h.9l.6-.3h3.6l.3.3h.3l.3.3h.3v.3h.3l.3.3h.3v.3h.3l.3.3h.3l.6.6v.3l.3.3-.3.3v.3h-.3v.3h-2.4l-.6-.3h-3l-.6-.3h-1.8v-.3h-.3v-.6h.3v-.6h-.3zm-42-15.3-1.5.9-1.2.9-.9.9-1.2.9-.6.9-1.2,1.8-.3,1.2-.3,1.8v2.1l.3,1.8 .6,1.5 .6,1.8 1.2,1.2 1.2,1.2 1.2.9 1.5.6 1.8.6 1.8.3 1.8-.3 1.8-.3 3.6-1.8 1.8-1.5v-.3l-.3-.3v-.3l-.3-.3v-.3l-.3-.3-.3-.3v-.3h-.3l-.3-.3h-2.1v-.9h-.3l-.3-.3-.3-.3h-.3v-.6h.3v-.3l.3-.3 .3-.3 .3-.3 .3-.3 .3-.3h.3l.6-.6v-.6h-.3v-.3h-.3l-.3-.3h-1.8l-.3-.3h-.3v-.6l-.3-.3h-.9l-.3-.3h-.3v-.3l-.3-.3h-1.8v.3h-1.2l-.3-.3-.3-.3v-.9l.3-.3h.3v-.3h.3l.3-.3 .3-.3 .3-.3v-.6h-.3v-1.5h-.6v-.9l-.3-.3v-.3h-.6v-.3h-.3l-.3-.3zm14.4,19.8h-.3v-.3h-.3l-.3.3-.3.3v.9l.3.3h.6l.3.3h.3l.3.3h.3l.3.3 .6.6h.6l.3-.3h.3v-1.2l-.3-.3-.6-.6h-.3l-.3-.3-.3-.3h-1.2zm-3-12.3v-.9l.3-.3 .3-.3h.9 3.6l.3.3 .3.3v.6l-.3.3h-.3v.3h-.3v.3h-.3v.3h-.3v.3h.3l.3.3h.3v.3h.3v.3h.3v.3h-.3v.3l-.3.3h-.3v.3l-.3.3h-.6l-.3.3h-.6l-.3-.3h-1.5l-.3.3h-.6l-.3.3h-.6l-.3-.3h-.3v-.6h-.3v-.9h.3v-.6l.3-.3v-.3l.3-.3h.3v-.3l.3-.3v-.3zm-6.6-2.7-.3-.3h-.3l-.3-.3v-.6h.3v-.3h.3v-.3h.3v-.3h.3v-.3h1.8l.3-.3h1.5l.3.3 .3.3h.3v.3h.9v.3h.3v.3h.3v.3l-.3.3-.3.3-.3.3h-.3v.3h-.3l-.3.3h-.3l-.3.3h-.3l-.3.3h-.6l-.3-.3h-.3v-.3l-.3-.3v-.3h-.3l-.3-.3h-.6l-.6.3" fill="#1f1a17"/>
 </g>
</svg>
