<?xml version="1.0" encoding="iso-8859-1"?>
<!-- Generator: Adobe Illustrator 19.0.0, SVG Export Plug-In . SVG Version: 6.00 Build 0)  -->
<svg xmlns="http://www.w3.org/2000/svg" xmlns:xlink="http://www.w3.org/1999/xlink" version="1.1" id="Layer_1" x="0px" y="0px" viewBox="0 0 512 512" style="enable-background:new 0 0 512 512;" xml:space="preserve" width="512" height="512">
<g>
	<rect x="226" y="332" style="fill:#FFA433;" width="165" height="90"/>
	<rect x="121" y="332" style="fill:#FFC43B;" width="135" height="90"/>
	<path style="fill:#A3BBC0;" d="M447.905,135l-6.916-76.533C438.075,26.229,409.37,0,377,0H256l-60,195L447.905,135z"/>
	<path style="fill:#BDDBE0;" d="M256,0H135c-32.37,0-61.075,26.229-63.989,58.467L64.095,135L256,195V0z"/>
	<polygon style="fill:#BDDBE0;" points="447.905,135 256,135 196,248.5 256,362 468.417,362 462.544,297.01  "/>
	<polygon style="fill:#D6FAFF;" points="64.095,135 43.583,362 256,362 256,135  "/>
	<polygon style="fill:#41494E;" points="338.5,392 308.5,452 338.5,512 421,512 421,392  "/>
	<polygon style="fill:#5A656B;" points="256,392 226,452 256,512 338.5,512 338.5,392  "/>
	<polygon style="fill:#728287;" points="173.5,392 143.5,452 173.5,512 256,512 256,392  "/>
	<rect x="91" y="392" style="fill:#8B9EA4;" width="82.5" height="120"/>
</g>















</svg>
