<?xml version="1.0" encoding="utf-8"?>
<!-- Generator: Adobe Illustrator 25.3.1, SVG Export Plug-In . SVG Version: 6.00 Build 0)  -->
<svg version="1.1" id="Layer_1" xmlns="http://www.w3.org/2000/svg" xmlns:xlink="http://www.w3.org/1999/xlink" x="0px" y="0px"
	 viewBox="0 0 200 200" style="enable-background:new 0 0 200 200;" xml:space="preserve">
<g>
	<path d="M104,134.5c6,0,11.6-1.5,16.5-4.2l8.5,13.6c0.7,1.1,1.8,1.6,3,1.6c0.6,0,1.3-0.2,1.9-0.5c1.6-1,2.1-3.2,1.1-4.8l-8.7-13.9
		c7.5-6.3,12.2-15.8,12.2-26.3c0-18.2-14.1-33.1-32-34.4V52.3c10.7-1.2,19-10.3,19-21.3c0-11.9-9.6-21.5-21.5-21.5
		c-11.9,0-21.5,9.6-21.5,21.5c0,10.3,7.3,18.9,17,21v13.8c-16.4,2.1-29.2,15.9-30,32.7H54.9c-0.8-11.2-10.1-20-21.4-20
		C21.6,78.5,12,88.1,12,100c0,11.9,9.6,21.5,21.5,21.5c10,0,18.3-6.8,20.8-16h15.7c1.5,9.2,6.6,17.2,13.9,22.5l-13.4,21
		c-1.4-0.3-2.9-0.5-4.4-0.5c-11.9,0-21.5,9.6-21.5,21.5s9.6,21.5,21.5,21.5s21.5-9.6,21.5-21.5c0-7.8-4.2-14.6-10.4-18.4l12.9-20.1
		C94.2,133.4,99,134.5,104,134.5z M33.5,114.5c-8,0-14.5-6.5-14.5-14.5s6.5-14.5,14.5-14.5S48,92,48,100S41.5,114.5,33.5,114.5z
		 M66,184.5c-8,0-14.5-6.5-14.5-14.5S58,155.5,66,155.5S80.5,162,80.5,170S74,184.5,66,184.5z M89.5,31c0-8,6.5-14.5,14.5-14.5
		S118.5,23,118.5,31S112,45.5,104,45.5S89.5,39,89.5,31z M76.5,100c0-15.2,12.3-27.5,27.5-27.5c15.2,0,27.5,12.3,27.5,27.5
		c0,15.2-12.3,27.5-27.5,27.5C88.8,127.5,76.5,115.2,76.5,100z"/>
	<path d="M146,148.5c-11.9,0-21.5,9.6-21.5,21.5s9.6,21.5,21.5,21.5s21.5-9.6,21.5-21.5S157.9,148.5,146,148.5z M146,184.5
		c-8,0-14.5-6.5-14.5-14.5s6.5-14.5,14.5-14.5s14.5,6.5,14.5,14.5S154,184.5,146,184.5z"/>
	<path d="M93.2,107c0.5,1,1.1,1.9,1.7,2.7c0.8,0.9,1.6,1.6,2.5,2.2s1.9,0.9,3,1.2s2.3,0.4,3.7,0.4c1.8,0,3.4-0.3,4.7-0.9
		s2.5-1.3,3.3-2.2s1.5-1.9,1.9-2.8s0.6-1.8,0.6-2.7c0-0.6-0.2-1.2-0.7-1.6s-1-0.7-1.6-0.7c-0.7,0-1.3,0.2-1.6,0.6s-0.6,1-0.8,1.7
		c-0.5,1.4-1.3,2.5-2.3,3.3s-2.3,1.1-3.8,1.1c-1.4,0-2.6-0.3-3.6-1s-1.8-1.6-2.4-3s-0.8-3-0.8-5c0-3,0.6-5.3,1.9-6.9s3-2.4,5.1-2.4
		c1.3,0,2.5,0.3,3.4,0.9s1.7,1.6,2.4,2.9c0.4,0.8,0.8,1.3,1.1,1.6s0.8,0.5,1.5,0.5c0.6,0,1.1-0.2,1.5-0.7s0.6-1,0.6-1.6
		c0-1.1-0.4-2.2-1.3-3.5s-2.1-2.3-3.7-3.1s-3.5-1.2-5.6-1.2c-1.7,0-3.3,0.3-4.8,0.9s-2.8,1.5-4,2.7s-2,2.6-2.6,4.2s-0.9,3.5-0.9,5.6
		c0,1.3,0.1,2.5,0.4,3.6S92.8,106,93.2,107z"/>
	<path d="M107.9,37.2c0,0.7,0.2,1.2,0.5,1.6s0.7,0.5,1.3,0.5c0.5,0,0.9-0.2,1.3-0.5s0.5-0.9,0.5-1.6V23.6c0-0.7-0.2-1.2-0.5-1.6
		s-0.7-0.5-1.3-0.5c-0.5,0-0.9,0.2-1.2,0.5s-0.5,0.9-0.5,1.6v4.9h-7.5v-4.9c0-0.7-0.2-1.2-0.5-1.6s-0.7-0.5-1.3-0.5
		c-0.5,0-1,0.2-1.3,0.5s-0.5,0.9-0.5,1.6v13.5c0,0.7,0.2,1.2,0.5,1.6s0.7,0.5,1.3,0.5c0.5,0,0.9-0.2,1.3-0.5s0.5-0.9,0.5-1.6v-5.8
		h7.5V37.2z"/>
	<path d="M38.6,90.5c-0.5,0-0.9,0.2-1.2,0.5s-0.5,0.9-0.5,1.6v4.9h-7.5v-4.9c0-0.7-0.2-1.2-0.5-1.6s-0.7-0.5-1.3-0.5
		c-0.5,0-1,0.2-1.3,0.5s-0.5,0.9-0.5,1.6v13.5c0,0.7,0.2,1.2,0.5,1.6s0.7,0.5,1.3,0.5c0.5,0,0.9-0.2,1.3-0.5s0.5-0.9,0.5-1.6v-5.8
		h7.5v5.8c0,0.7,0.2,1.2,0.5,1.6s0.7,0.5,1.3,0.5c0.5,0,0.9-0.2,1.3-0.5s0.5-0.9,0.5-1.6V92.6c0-0.7-0.2-1.2-0.5-1.6
		S39.1,90.5,38.6,90.5z"/>
	<path d="M71.6,161.5c-0.5,0-0.9,0.2-1.2,0.5s-0.5,0.9-0.5,1.6v4.9h-7.5v-4.9c0-0.7-0.2-1.2-0.5-1.6s-0.7-0.5-1.3-0.5
		c-0.5,0-1,0.2-1.3,0.5s-0.5,0.9-0.5,1.6v13.5c0,0.7,0.2,1.2,0.5,1.6s0.7,0.5,1.3,0.5c0.5,0,0.9-0.2,1.3-0.5s0.5-0.9,0.5-1.6v-5.8
		h7.5v5.8c0,0.7,0.2,1.2,0.5,1.6s0.7,0.5,1.3,0.5c0.5,0,0.9-0.2,1.3-0.5s0.5-0.9,0.5-1.6v-13.5c0-0.7-0.2-1.2-0.5-1.6
		S72.1,161.5,71.6,161.5z"/>
	<path d="M151.6,160.5c-0.5,0-0.9,0.2-1.2,0.5s-0.5,0.9-0.5,1.6v4.9h-7.5v-4.9c0-0.7-0.2-1.2-0.5-1.6s-0.7-0.5-1.3-0.5
		c-0.5,0-1,0.2-1.3,0.5s-0.5,0.9-0.5,1.6v13.5c0,0.7,0.2,1.2,0.5,1.6s0.7,0.5,1.3,0.5c0.5,0,0.9-0.2,1.3-0.5s0.5-0.9,0.5-1.6v-5.8
		h7.5v5.8c0,0.7,0.2,1.2,0.5,1.6s0.7,0.5,1.3,0.5c0.5,0,0.9-0.2,1.3-0.5s0.5-0.9,0.5-1.6v-13.5c0-0.7-0.2-1.2-0.5-1.6
		S152.1,160.5,151.6,160.5z"/>
</g>
</svg>
