<?xml version="1.0" encoding="iso-8859-1"?>
<!-- Generator: Adobe Illustrator 19.0.0, SVG Export Plug-In . SVG Version: 6.00 Build 0)  -->
<svg version="1.1" id="Capa_1" xmlns="http://www.w3.org/2000/svg" xmlns:xlink="http://www.w3.org/1999/xlink" x="0px" y="0px"
	 viewBox="0 0 512 512" style="enable-background:new 0 0 512 512;" xml:space="preserve">
<g>
	<g transform="translate(1 4)">
		<polygon style="fill:#7FACFA;" points="314.733,465.333 195.267,465.333 220.867,388.533 289.133,388.533 		"/>
		<polygon style="fill:#E3E7F2;" points="289.133,465.333 195.267,465.333 220.867,388.533 263.533,388.533 		"/>
		<path style="fill:#7FACFA;" d="M386.26,499.467H123.74c-2.957,0-5.704-1.531-7.259-4.047s-1.696-5.657-0.374-8.302l8.533-17.067
			c1.445-2.891,4.4-4.717,7.632-4.717h245.453c3.232,0,6.187,1.826,7.632,4.717l8.533,17.067c1.323,2.645,1.181,5.787-0.374,8.302
			C391.964,497.935,389.217,499.467,386.26,499.467z"/>
		<g>
			<path style="fill:#E3E7F2;" d="M366.383,499.467H118.017c-2.886-0.133-5.508-1.718-6.967-4.212
				c-1.458-2.494-1.554-5.557-0.254-8.137l8.073-17.067c1.288-2.84,4.103-4.678,7.221-4.717H358.31
				c3.118,0.039,5.932,1.877,7.221,4.717l8.073,17.067c1.3,2.58,1.204,5.643-0.254,8.137
				C371.891,497.748,369.269,499.334,366.383,499.467z"/>
			<circle style="fill:#E3E7F2;" cx="383" cy="106.933" r="76.8"/>
		</g>
		<polygon style="fill:#7FACFA;" points="502.467,337.333 502.467,388.533 7.533,388.533 7.533,337.333 23.661,286.133 
			28.952,269.067 42.435,226.4 47.725,209.333 61.208,166.667 63.853,158.133 66.755,149.6 84.333,98.4 427.373,98.4 443.501,149.6 
			448.792,166.667 462.275,209.333 467.565,226.4 481.048,269.067 486.339,286.133 		"/>
		
			<linearGradient id="SVGID_1_" gradientUnits="userSpaceOnUse" x1="-49.7583" y1="648.4783" x2="-49.0311" y2="647.3018" gradientTransform="matrix(469.3333 0 0 -290.1334 23425.2012 188255.9375)">
			<stop  offset="0" style="stop-color:#D4E1F4"/>
			<stop  offset="0.1717" style="stop-color:#D4E1F4"/>
			<stop  offset="0.2" style="stop-color:#D4E1F4"/>
			<stop  offset="0.2001" style="stop-color:#DAE4F4"/>
			<stop  offset="0.2007" style="stop-color:#EBEBF4"/>
			<stop  offset="0.2014" style="stop-color:#F6F1F4"/>
			<stop  offset="0.2023" style="stop-color:#FDF4F4"/>
			<stop  offset="0.205" style="stop-color:#FFF5F4"/>
			<stop  offset="0.2522" style="stop-color:#FFF5F4"/>
			<stop  offset="0.26" style="stop-color:#FFF5F4"/>
			<stop  offset="0.26" style="stop-color:#D4E1F4"/>
			<stop  offset="0.3974" style="stop-color:#D4E1F4"/>
			<stop  offset="0.42" style="stop-color:#D4E1F4"/>
			<stop  offset="0.4201" style="stop-color:#DAE4F4"/>
			<stop  offset="0.4207" style="stop-color:#EBEBF4"/>
			<stop  offset="0.4214" style="stop-color:#F6F1F4"/>
			<stop  offset="0.4223" style="stop-color:#FDF4F4"/>
			<stop  offset="0.425" style="stop-color:#FFF5F4"/>
			<stop  offset="0.4894" style="stop-color:#FFF5F4"/>
			<stop  offset="0.5" style="stop-color:#FFF5F4"/>
			<stop  offset="0.5" style="stop-color:#F9F2F4"/>
			<stop  offset="0.5001" style="stop-color:#E8EBF4"/>
			<stop  offset="0.5003" style="stop-color:#DDE5F4"/>
			<stop  offset="0.5005" style="stop-color:#D6E2F4"/>
			<stop  offset="0.501" style="stop-color:#D4E1F4"/>
			<stop  offset="0.7062" style="stop-color:#D4E1F4"/>
			<stop  offset="0.74" style="stop-color:#D4E1F4"/>
			<stop  offset="0.741" style="stop-color:#FFF5F4"/>
			<stop  offset="0.8346" style="stop-color:#FFF5F4"/>
			<stop  offset="0.85" style="stop-color:#FFF5F4"/>
			<stop  offset="0.851" style="stop-color:#D4E1F4"/>
		</linearGradient>
		<polygon style="fill:url(#SVGID_1_);" points="476.867,337.333 476.867,388.533 7.533,388.533 7.533,337.333 23.661,286.133 
			28.952,269.067 42.435,226.4 47.725,209.333 61.208,166.667 63.853,158.133 66.755,149.6 84.333,98.4 401.773,98.4 417.901,149.6 
			423.192,166.667 436.675,209.333 441.965,226.4 455.448,269.067 460.739,286.133 		"/>
		<rect x="7.533" y="337.333" style="fill:#7FACFA;" width="494.933" height="51.2"/>
		<rect x="7.533" y="337.333" style="fill:#E3E7F2;" width="469.333" height="51.2"/>
		<g>
			<polygon style="fill:#FFFFFF;" points="84.333,98.4 109.933,98.4 92.355,149.6 89.453,158.133 86.808,166.667 73.325,209.333 
				68.035,226.4 54.552,269.067 49.261,286.133 33.133,337.333 33.133,388.533 7.533,388.533 7.533,337.333 23.661,286.133 
				28.952,269.067 42.435,226.4 47.725,209.333 61.208,166.667 63.853,158.133 66.755,149.6 			"/>
			<path style="fill:#FFFFFF;" d="M151.661,465.333c-3.096,0.045-5.889,1.873-7.168,4.693l-8.107,17.067
				c-1.303,2.588-1.205,5.66,0.26,8.16c1.465,2.5,4.098,4.086,6.993,4.213h-25.6c-2.895-0.127-5.528-1.713-6.993-4.213
				c-1.465-2.5-1.563-5.572-0.26-8.16l8.107-17.067c1.279-2.82,4.072-4.648,7.168-4.693H151.661z"/>
			<polygon style="fill:#FFFFFF;" points="220.867,388.533 246.467,388.533 220.867,465.333 195.267,465.333 			"/>
			<path style="fill:#FFFFFF;" d="M395.885,31.243c-33.82,5.66-59.775,33.078-63.573,67.157h-25.6
				c4.345-38.857,37.189-68.248,76.288-68.267C387.32,30.114,391.632,30.485,395.885,31.243z"/>
		</g>
	</g>
	<path style="fill:#428DFF;" d="M511.608,338.775l-55.408-176.302l12.212,7.052c4.082,2.353,9.299,0.954,11.655-3.127
		s0.958-9.298-3.121-11.656l-15.194-8.773c3.804-8.385,6.206-17.338,7.11-26.502H486.4c4.713,0,8.533-3.821,8.533-8.533
		c0-4.713-3.82-8.533-8.533-8.533h-17.499c-0.931-9.161-3.353-18.109-7.17-26.489l15.215-8.786c2.642-1.523,4.271-4.341,4.272-7.392
		c0.001-3.05-1.626-5.869-4.268-7.394c-2.642-1.525-5.896-1.524-8.537,0.002l-15.25,8.806c-5.381-7.454-11.923-13.996-19.377-19.377
		l8.806-15.249c2.353-4.082,0.954-9.299-3.127-11.655s-9.298-0.958-11.656,3.121l-8.786,15.215
		c-8.38-3.817-17.328-6.24-26.489-7.171V8.533C392.533,3.821,388.713,0,384,0s-8.533,3.821-8.533,8.533V26.04
		c-9.165,0.922-18.119,3.328-26.511,7.124l-8.764-15.176c-2.358-4.08-7.575-5.477-11.656-3.121s-5.481,7.573-3.127,11.655
		l8.742,15.139c-7.477,5.386-14.029,11.951-19.401,19.437l-15.162-8.756c-2.641-1.526-5.896-1.527-8.537-0.002
		c-2.642,1.525-4.269,4.344-4.268,7.394c0.001,3.05,1.629,5.868,4.272,7.392l15.178,8.764c-2.603,5.757-4.552,11.787-5.813,17.978
		H85.333c-0.096,0-0.175,0.051-0.27,0.055c-0.669,0.052-1.329,0.185-1.966,0.397c-0.43,0.081-0.854,0.195-1.267,0.341
		c-0.524,0.278-1.016,0.61-1.47,0.991c-0.421,0.264-0.817,0.565-1.185,0.899c-0.32,0.394-0.604,0.815-0.849,1.259
		c-0.363,0.488-0.67,1.015-0.917,1.571c-0.036,0.094-0.115,0.156-0.147,0.253l-20.55,59.942l-56.321,179.2
		c-0.04,0.314-0.062,0.63-0.066,0.947c-0.163,0.525-0.272,1.064-0.326,1.611v51.2c0,4.713,3.821,8.533,8.533,8.533h201.493
		L190.115,460.8H128c-3.232-0.001-6.188,1.825-7.633,4.717L103.3,499.65c-1.322,2.645-1.181,5.787,0.374,8.303
		c1.555,2.516,4.302,4.047,7.259,4.047h290.133c2.958,0,5.704-1.531,7.259-4.047c1.555-2.516,1.697-5.657,0.374-8.303
		l-17.067-34.133c-1.446-2.891-4.401-4.717-7.633-4.717h-62.115l-19.911-59.733h201.493c4.713,0,8.533-3.82,8.533-8.533v-51.2
		c-0.054-0.547-0.163-1.086-0.326-1.611C511.671,339.406,511.649,339.089,511.608,338.775z M138.122,332.8l7.313-42.667h102.031
		V332.8H138.122z M20.162,332.8l13.408-42.667h94.548l-7.315,42.667H20.162z M52.342,230.4h86.016l-7.314,42.667h-92.11
		L52.342,230.4z M71.113,170.667h77.485l-7.315,42.667H57.705L71.113,170.667z M91.427,110.933h68.832l-8.532,42.667H76.799
		L91.427,110.933z M335.845,110.933l7.314,42.667h-78.626v-42.667H335.845z M247.467,170.667v42.667h-88.868l7.313-42.667H247.467z
		 M264.533,170.667h81.551l7.314,42.667h-88.865V170.667z M247.467,230.4v42.667h-99.106l7.313-42.667H247.467z M264.533,230.4
		h91.791l7.314,42.667h-99.105V230.4z M373.643,230.4h86.013l13.409,42.667h-92.108L373.643,230.4z M370.718,213.333l-7.314-42.667
		h77.48l13.409,42.667H370.718z M422.111,110.933L435.52,153.6h-75.042l-7.314-42.667H422.111z M247.467,153.6h-78.338l8.533-42.667
		h69.805V153.6z M264.533,290.133h102.03l7.314,42.667H264.533V290.133z M391.197,332.8l-7.314-42.667h94.546l13.409,42.667H391.197
		z M384,42.667c37.685,0.043,68.224,30.582,68.267,68.267c-0.042,8.305-1.615,16.53-4.638,24.265l-11.112-35.357
		c-0.043-0.135-0.149-0.226-0.197-0.358c-0.23-0.551-0.519-1.075-0.862-1.564c-1.024-1.926-2.881-3.269-5.03-3.639
		c-0.53-0.164-1.076-0.274-1.629-0.329c-0.148-0.008-0.273-0.085-0.423-0.085H317.977C325.667,63.697,352.866,42.605,384,42.667z
		 M387.258,494.933H124.742l8.533-17.067h245.45L387.258,494.933z M303.896,460.8h-95.792l19.913-59.733h55.967L303.896,460.8z
		 M494.933,384H17.067v-34.133h477.867V384z"/>
</g>
<g>
</g>
<g>
</g>
<g>
</g>
<g>
</g>
<g>
</g>
<g>
</g>
<g>
</g>
<g>
</g>
<g>
</g>
<g>
</g>
<g>
</g>
<g>
</g>
<g>
</g>
<g>
</g>
<g>
</g>
</svg>
