<svg id="Layer_1" enable-background="new 0 0 512 512" height="512" viewBox="0 0 512 512" width="512" xmlns="http://www.w3.org/2000/svg"><g><path d="m109.199 363.962h257.545v126.281h-257.545z" fill="#f3f3f3"/><path d="m335.839 363.962h30.905v126.281h-30.905z" fill="#e4e4e4"/><path d="m445.093 177.682h-258.282v-62.464c0-4.142-3.358-7.5-7.5-7.5s-7.5 3.358-7.5 7.5v106.301c0 4.142 3.358 7.5 7.5 7.5s7.5-3.358 7.5-7.5v-28.837h250.782v175.745c0 4.142 3.358 7.5 7.5 7.5s7.5-3.358 7.5-7.5v-183.245c0-4.142-3.358-7.5-7.5-7.5z" fill="#3a7190"/><circle cx="429.297" cy="82.703" fill="#ffd54f" r="41.207"/><path d="m429.297 41.496c-5.466 0-10.679 1.074-15.453 3.007 15.099 6.114 25.755 20.909 25.755 38.2s-10.656 32.086-25.755 38.2c4.773 1.933 9.986 3.007 15.453 3.007 22.758 0 41.207-18.449 41.207-41.207s-18.449-41.207-41.207-41.207z" fill="#ffc328"/><g fill="#ffd54f"><path d="m429.297 0c-4.142 0-7.5 3.358-7.5 7.5v7.674c0 4.142 3.358 7.5 7.5 7.5s7.5-3.358 7.5-7.5v-7.674c0-4.142-3.358-7.5-7.5-7.5z"/><path d="m429.297 142.732c-4.142 0-7.5 3.358-7.5 7.5v7.674c0 4.142 3.358 7.5 7.5 7.5s7.5-3.358 7.5-7.5v-7.674c0-4.142-3.358-7.5-7.5-7.5z"/><path d="m389.037 27.971c1.389 2.406 3.91 3.751 6.502 3.751 1.272 0 2.562-.324 3.743-1.006 3.587-2.071 4.816-6.658 2.745-10.245l-3.837-6.646c-2.071-3.588-6.658-4.816-10.245-2.745s-4.816 6.658-2.745 10.245z"/><path d="m469.557 137.436c-2.072-3.588-6.66-4.814-10.245-2.745-3.587 2.071-4.816 6.658-2.745 10.245l3.837 6.646c1.389 2.406 3.91 3.751 6.502 3.751 1.272 0 2.563-.325 3.743-1.006 3.587-2.071 4.816-6.658 2.745-10.245z"/><path d="m374.564 42.443-6.646-3.837c-3.588-2.072-8.174-.842-10.245 2.745s-.842 8.174 2.745 10.245l6.646 3.837c1.181.682 2.471 1.006 3.743 1.006 2.592 0 5.113-1.345 6.502-3.751 2.072-3.586.843-8.173-2.745-10.245z"/><path d="m498.175 113.81-6.646-3.837c-3.588-2.073-8.175-.842-10.245 2.745-2.071 3.587-.842 8.174 2.745 10.245l6.646 3.837c1.181.682 2.471 1.006 3.743 1.006 2.592 0 5.113-1.346 6.502-3.751 2.071-3.588.842-8.175-2.745-10.245z"/><path d="m369.268 82.703c0-4.142-3.358-7.5-7.5-7.5h-7.674c-4.142 0-7.5 3.358-7.5 7.5s3.358 7.5 7.5 7.5h7.674c4.142 0 7.5-3.358 7.5-7.5z"/><path d="m504.5 75.203h-7.674c-4.142 0-7.5 3.358-7.5 7.5s3.358 7.5 7.5 7.5h7.674c4.142 0 7.5-3.358 7.5-7.5s-3.358-7.5-7.5-7.5z"/><path d="m367.064 109.973-6.646 3.837c-3.587 2.071-4.816 6.658-2.745 10.245 1.389 2.406 3.91 3.751 6.502 3.751 1.272 0 2.563-.324 3.743-1.006l6.646-3.837c3.587-2.071 4.816-6.658 2.745-10.245-2.071-3.588-6.66-4.817-10.245-2.745z"/><path d="m487.786 56.44c1.272 0 2.562-.324 3.743-1.006l6.646-3.837c3.587-2.071 4.816-6.658 2.745-10.245s-6.659-4.816-10.245-2.745l-6.646 3.837c-3.587 2.071-4.816 6.658-2.745 10.245 1.389 2.406 3.91 3.751 6.502 3.751z"/><path d="m399.282 134.69c-3.588-2.072-8.174-.843-10.245 2.745l-3.837 6.646c-2.071 3.587-.842 8.174 2.745 10.245 1.181.682 2.471 1.006 3.743 1.006 2.592 0 5.113-1.345 6.502-3.751l3.837-6.646c2.072-3.586.843-8.173-2.745-10.245z"/><path d="m459.312 30.716c1.181.682 2.471 1.006 3.743 1.006 2.592 0 5.113-1.346 6.502-3.751l3.837-6.646c2.071-3.587.842-8.174-2.745-10.245-3.587-2.072-8.175-.842-10.245 2.745l-3.837 6.646c-2.072 3.588-.842 8.175 2.745 10.245z"/></g><path d="m0 213.247h366.744v158.648h-366.744z" fill="#88c3e0"/><path d="m335.839 213.247h30.905v158.648h-30.905z" fill="#6eabc9"/><path d="m134.954 140.105h96.837v304.934h-96.837z" fill="#b2ebf2" transform="matrix(0 1 -1 0 475.944 109.199)"/><g fill="#80deea"><path d="m304.934 244.153h30.905v96.837h-30.905z"/><path d="m214.278 244.153h30.905v96.837h-30.905z"/><path d="m90.656 244.153h30.905v96.837h-30.905z"/></g><path d="m232.821 411.042h103.018v79.2h-103.018z" fill="#b2ebf2"/><path d="m304.934 411.042h30.905v79.2h-30.905z" fill="#80deea"/><path d="m335.839 403.542h-103.018c-4.142 0-7.5 3.358-7.5 7.5v79.2h15v-71.7h88.018v71.7h15v-79.2c0-4.142-3.358-7.5-7.5-7.5z" fill="#43809f"/><path d="m335.839 236.653h-304.934c-4.142 0-7.5 3.358-7.5 7.5v96.837c0 4.142 3.358 7.5 7.5 7.5h304.934c4.142 0 7.5-3.358 7.5-7.5v-96.837c0-4.142-3.358-7.5-7.5-7.5zm-98.156 15v81.837h-108.621v-81.837zm-199.278 0h75.656v81.837h-75.656zm289.934 81.837h-75.656v-81.837h75.656z" fill="#f3f3f3"/><path d="m29.875 371.895h30.905v118.347h-30.905z" fill="#43809f"/><path d="m300.205 159.587-229.011-68.38c-4.361-1.302-6.841-5.894-5.539-10.255l6.484-21.717 244.805 73.097-6.484 21.717c-1.302 4.361-5.894 6.841-10.255 5.538z" fill="#43809f"/><path d="m287.331 123.489-6.484 21.717c-1.302 4.361-5.894 6.841-10.255 5.539l29.613 8.842c4.361 1.302 8.953-1.178 10.255-5.539l6.484-21.717z" fill="#3a7190"/><path d="m493.972 490.243h-96.837v-130.71c0-2.276 1.845-4.121 4.121-4.121h88.596c2.276 0 4.121 1.845 4.121 4.121v130.71z" fill="#ffd54f"/><path d="m463.066 355.412v134.83h30.905v-130.709c0-2.276-1.845-4.121-4.121-4.121z" fill="#ffc328"/><path d="m447.518 402.559 12.167-12.166c2.929-2.929 2.929-7.677 0-10.606-2.929-2.93-7.678-2.929-10.606 0l-17.47 17.469c-1.407 1.406-2.197 3.314-2.197 5.303s.79 3.897 2.197 5.303l11.083 11.083-12.19 12.19c-2.929 2.929-2.929 7.678 0 10.606 1.464 1.464 3.384 2.197 5.303 2.197s3.839-.732 5.303-2.197l17.493-17.493c2.929-2.929 2.929-7.678 0-10.606z" fill="#f75632"/><path d="m349.735 134.133-306.006-91.371c-3.969-1.186-8.147 1.072-9.333 5.041-1.185 3.969 1.072 8.147 5.041 9.333l306.006 91.371c.716.214 1.438.315 2.149.315 3.229 0 6.212-2.103 7.184-5.356 1.185-3.97-1.072-8.148-5.041-9.333z" fill="#3a7190"/><path d="m495.517 512h-479.034c-9.103 0-16.483-7.38-16.483-16.483 0-9.103 7.38-16.483 16.483-16.483h479.034c9.103 0 16.483 7.38 16.483 16.483 0 9.103-7.38 16.483-16.483 16.483z" fill="#d67b42"/><path d="m495.517 479.034h-30.905c9.103 0 16.483 7.38 16.483 16.483 0 9.103-7.38 16.483-16.483 16.483h30.905c9.103 0 16.483-7.38 16.483-16.483 0-9.103-7.38-16.483-16.483-16.483z" fill="#be652b"/></g></svg>