<?xml version="1.0" encoding="iso-8859-1"?>
<!-- Generator: Adobe Illustrator 19.0.0, SVG Export Plug-In . SVG Version: 6.00 Build 0)  -->
<svg version="1.1" id="Capa_1" xmlns="http://www.w3.org/2000/svg" xmlns:xlink="http://www.w3.org/1999/xlink" x="0px" y="0px"
	 viewBox="0 0 512 512" style="enable-background:new 0 0 512 512;" xml:space="preserve">
<path style="fill:#FFBB4A;" d="M281.451,249.783L292,192.999l-10.549-66.922c-16.476-17.471-39.847-28.38-65.771-28.38
	c-49.895,0-90.345,40.398-90.345,90.233s40.449,90.233,90.345,90.233C241.605,278.163,264.976,267.254,281.451,249.783z"/>
<g style="opacity:0.1;">
	<path d="M156.341,187.93c0-44.547,32.322-81.55,74.82-88.901c-5.031-0.869-10.202-1.332-15.481-1.332
		c-49.895,0-90.345,40.398-90.345,90.233s40.449,90.233,90.345,90.233c5.279,0,10.45-0.463,15.481-1.332
		C188.663,269.478,156.341,232.477,156.341,187.93z"/>
</g>
<g>
	<path style="fill:#FCC96C;" d="M218.734,73.088c-4.142,0-7.5-3.357-7.5-7.5v-8.413c0-4.143,3.358-7.5,7.5-7.5
		c4.143,0,7.5,3.357,7.5,7.5v8.413C226.234,69.73,222.877,73.088,218.734,73.088z"/>
	<path style="fill:#FCC96C;" d="M245.958,76.847c-0.555,0-1.117-0.063-1.681-0.191c-4.038-0.924-6.561-4.947-5.637-8.984
		l1.878-8.201c0.925-4.038,4.952-6.558,8.984-5.637c4.038,0.924,6.562,4.947,5.637,8.984l-1.878,8.201
		C252.467,74.493,249.377,76.847,245.958,76.847z"/>
	<path style="fill:#FCC96C;" d="M268.387,85.818c1.051,0.508,2.161,0.748,3.255,0.748c2.788,0,5.466-1.563,6.76-4.241l3.05-6.317
		v-8.815c-0.712-1.021-1.684-1.88-2.885-2.46c-3.731-1.804-8.213-0.237-10.015,3.493l-3.658,7.578
		C263.092,79.534,264.656,84.018,268.387,85.818z"/>
	<path style="fill:#FCC96C;" d="M269.298,314.769c-2.801,0-5.487-1.575-6.773-4.271l-3.625-7.593c-1.785-3.738-0.201-8.215,3.536-10
		c3.741-1.783,8.216-0.201,10,3.537l3.625,7.593c1.784,3.738,0.201,8.215-3.537,10C271.481,314.532,270.381,314.769,269.298,314.769
		z"/>
	<path style="fill:#FCC96C;" d="M241.317,323.701c-3.433,0-6.529-2.371-7.311-5.86l-1.842-8.209
		c-0.906-4.042,1.636-8.053,5.677-8.96c4.042-0.907,8.054,1.636,8.96,5.677l1.842,8.209c0.906,4.042-1.636,8.053-5.677,8.96
		C242.413,323.642,241.86,323.701,241.317,323.701z"/>
	<path style="fill:#FCC96C;" d="M212.066,326.184c-0.011,0-0.021,0-0.033,0c-4.142-0.018-7.485-3.39-7.468-7.532l0.036-8.412
		c0.018-4.131,3.373-7.468,7.5-7.468c0.011,0,0.021,0,0.032,0c4.143,0.018,7.485,3.39,7.468,7.532l-0.036,8.412
		C219.548,322.847,216.193,326.184,212.066,326.184z"/>
	<path style="fill:#FCC96C;" d="M182.995,322.096c-0.564,0-1.138-0.064-1.711-0.198c-4.034-0.941-6.541-4.975-5.6-9.008l1.912-8.191
		c0.941-4.035,4.973-6.544,9.008-5.6c4.034,0.941,6.541,4.975,5.6,9.008l-1.912,8.191
		C189.484,319.759,186.401,322.096,182.995,322.096z"/>
	<path style="fill:#FCC96C;" d="M155.549,311.639c-1.104,0-2.226-0.245-3.286-0.763c-3.722-1.817-5.266-6.309-3.448-10.03
		l3.692-7.561c1.817-3.723,6.308-5.267,10.03-3.448c3.722,1.817,5.266,6.309,3.448,10.03l-3.692,7.561
		C160.993,310.091,158.325,311.639,155.549,311.639z"/>
	<path style="fill:#FCC96C;" d="M131.139,295.337c-1.654,0-3.319-0.544-4.707-1.664c-3.223-2.603-3.726-7.324-1.124-10.547
		l5.286-6.548c2.6-3.224,7.324-3.728,10.546-1.125c3.224,2.603,3.727,7.324,1.125,10.547l-5.286,6.548
		C135.497,294.384,133.327,295.337,131.139,295.337z"/>
	<path style="fill:#FCC96C;" d="M110.985,274.014c-2.22,0-4.418-0.982-5.897-2.86c-2.563-3.255-2.001-7.971,1.254-10.532
		l6.614-5.207c3.255-2.563,7.969-2,10.532,1.253c2.562,3.255,2.001,7.971-1.254,10.532l-6.614,5.207
		C114.245,273.489,112.609,274.014,110.985,274.014z"/>
	<path style="fill:#FCC96C;" d="M96.089,248.743c-2.809,0-5.501-1.584-6.783-4.29c-1.774-3.743-0.177-8.216,3.566-9.989l7.608-3.605
		c3.745-1.773,8.216-0.177,9.989,3.565c1.773,3.743,0.177,8.216-3.566,9.989l-7.608,3.605
		C98.258,248.51,97.164,248.743,96.089,248.743z"/>
	<path style="fill:#FCC96C;" d="M87.19,220.791c-3.44,0-6.54-2.382-7.315-5.88c-0.896-4.044,1.657-8.049,5.701-8.944l8.223-1.821
		c4.043-0.897,8.049,1.656,8.944,5.7c0.895,4.044-1.656,8.049-5.7,8.944l-8.223,1.821C88.273,220.732,87.728,220.791,87.19,220.791z
		"/>
	<path style="fill:#FCC96C;" d="M93.194,191.615c-0.016,0-0.031,0-0.048,0l-8.422-0.053c-4.142-0.026-7.479-3.405-7.453-7.547
		c0.026-4.126,3.379-7.453,7.499-7.453c0.017,0,0.032,0,0.048,0l8.422,0.053c4.143,0.026,7.479,3.405,7.453,7.547
		C100.668,188.288,97.315,191.615,93.194,191.615z"/>
	<path style="fill:#FCC96C;" d="M97.131,164.457c-0.568,0-1.145-0.065-1.722-0.201l-8.198-1.927
		c-4.032-0.947-6.533-4.984-5.586-9.017c0.948-4.033,4.985-6.532,9.018-5.585l8.198,1.927c4.032,0.947,6.532,4.984,5.585,9.017
		C103.614,162.126,100.533,164.457,97.131,164.457z"/>
	<path style="fill:#FCC96C;" d="M107.011,138.855c-1.107,0-2.231-0.246-3.293-0.766l-7.563-3.703
		c-3.72-1.822-5.26-6.314-3.438-10.034c1.821-3.721,6.314-5.258,10.034-3.438l7.562,3.703c3.72,1.822,5.26,6.314,3.438,10.034
		C112.45,137.311,109.784,138.855,107.011,138.855z"/>
	<path style="fill:#FCC96C;" d="M122.366,116.097c-1.657,0-3.323-0.546-4.712-1.668l-6.545-5.293
		c-3.221-2.604-3.721-7.327-1.116-10.548c2.605-3.223,7.328-3.719,10.548-1.116l6.545,5.293c3.221,2.604,3.721,7.327,1.116,10.548
		C126.721,115.146,124.552,116.097,122.366,116.097z"/>
	<path style="fill:#FCC96C;" d="M142.42,97.328c-2.222,0-4.422-0.983-5.901-2.866l-5.2-6.617c-2.56-3.257-1.993-7.972,1.264-10.531
		c3.255-2.558,7.972-1.993,10.53,1.264l5.2,6.617c2.56,3.257,1.993,7.972-1.264,10.531C145.676,96.805,144.042,97.328,142.42,97.328
		z"/>
	<path style="fill:#FCC96C;" d="M166.148,83.495c-2.811,0-5.506-1.588-6.786-4.299l-3.594-7.608
		c-1.77-3.745-0.168-8.215,3.577-9.984s8.216-0.167,9.985,3.578l3.594,7.608c1.77,3.745,0.168,8.215-3.577,9.984
		C168.313,83.264,167.223,83.495,166.148,83.495z"/>
	<path style="fill:#FCC96C;" d="M192.354,75.287c-3.445,0-6.548-2.389-7.317-5.893l-1.806-8.218
		c-0.889-4.046,1.671-8.046,5.716-8.935c4.048-0.887,8.047,1.67,8.935,5.716l1.806,8.218c0.889,4.046-1.671,8.046-5.716,8.935
		C193.429,75.229,192.887,75.287,192.354,75.287z"/>
</g>
<g>
	<path style="fill:#74B9DF;" d="M439.14,60.803h-30.092c-4.143,0-7.5-3.357-7.5-7.5s3.357-7.5,7.5-7.5h30.092
		c4.143,0,7.5,3.357,7.5,7.5C446.64,57.445,443.282,60.803,439.14,60.803z"/>
	<path style="fill:#74B9DF;" d="M439.14,106.893h-30.092c-4.143,0-7.5-3.357-7.5-7.5s3.357-7.5,7.5-7.5h30.092
		c4.143,0,7.5,3.357,7.5,7.5S443.282,106.893,439.14,106.893z"/>
	<path style="fill:#74B9DF;" d="M439.14,152.982h-30.092c-4.143,0-7.5-3.357-7.5-7.5s3.357-7.5,7.5-7.5h30.092
		c4.143,0,7.5,3.357,7.5,7.5S443.282,152.982,439.14,152.982z"/>
	<path style="fill:#74B9DF;" d="M439.14,199.071h-30.092c-4.143,0-7.5-3.357-7.5-7.5s3.357-7.5,7.5-7.5h30.092
		c4.143,0,7.5,3.357,7.5,7.5S443.282,199.071,439.14,199.071z"/>
	<path style="fill:#74B9DF;" d="M439.14,245.161h-30.092c-4.143,0-7.5-3.357-7.5-7.5s3.357-7.5,7.5-7.5h30.092
		c4.143,0,7.5,3.357,7.5,7.5S443.282,245.161,439.14,245.161z"/>
	<path style="fill:#74B9DF;" d="M439.14,291.25h-30.092c-4.143,0-7.5-3.357-7.5-7.5s3.357-7.5,7.5-7.5h30.092
		c4.143,0,7.5,3.357,7.5,7.5S443.282,291.25,439.14,291.25z"/>
</g>
<path style="fill:#B1E8FF;" d="M367.918,318.234V42.701C367.918,19.117,348.563,0,324.685,0s-43.233,19.117-43.233,42.701v275.533
	c-35.201,16.132-59.627,51.328-59.627,92.178c0,56.105,46.053,101.588,102.86,101.588s102.86-45.482,102.86-101.588
	C427.545,369.563,403.119,334.366,367.918,318.234z"/>
<path style="fill:#74B9DF;" d="M340.284,42.701c0-8.496-6.997-15.409-15.6-15.409s-15.6,6.913-15.6,15.409v175.182h31.199V42.701
	H340.284z"/>
<path style="fill:#EF5A50;" d="M356.286,342.992c-9.759-4.475-16.002-14.133-16.002-24.758V217.883h-31.199v100.352
	c0,10.625-6.244,20.283-16.003,24.758c-26.5,12.144-43.624,38.608-43.624,67.42c0,40.967,33.747,74.296,75.227,74.296
	s75.226-33.329,75.226-74.296C399.91,381.601,382.787,355.136,356.286,342.992z"/>
<g style="opacity:0.1;">
	<path d="M347.231,468.217c-41.479,0-75.227-33.328-75.227-74.295c0-18.973,7.427-36.926,20.065-50.443
		c-25.919,12.35-42.611,38.493-42.611,66.934c0,40.967,33.747,74.296,75.227,74.296c21.771,0,41.4-9.19,55.149-23.838
		C369.966,465.577,358.904,468.217,347.231,468.217z"/>
</g>
<path style="fill:#74B9DF;" d="M156.182,385.728l-28.681-16.753l28.681-16.753c3.577-2.09,4.783-6.683,2.693-10.26
	c-2.088-3.575-6.681-4.78-10.259-2.693l-28.228,16.488v-32.795c0-4.143-3.357-7.5-7.5-7.5c-4.142,0-7.5,3.357-7.5,7.5v33.097
	l-28.744-16.79c-3.575-2.088-8.169-0.883-10.259,2.693c-2.09,3.577-0.884,8.17,2.693,10.26l28.681,16.753l-28.681,16.753
	c-3.577,2.09-4.783,6.683-2.693,10.26c1.395,2.387,3.904,3.718,6.483,3.718c1.285,0,2.587-0.33,3.776-1.024l28.744-16.79V415
	c0,4.143,3.358,7.5,7.5,7.5c4.143,0,7.5-3.357,7.5-7.5v-32.808l28.228,16.488c1.189,0.694,2.491,1.024,3.776,1.024
	c2.578,0,5.088-1.331,6.482-3.718C160.965,392.41,159.759,387.817,156.182,385.728z"/>
<path style="fill:#34A1D7;" d="M198.433,464.44l-14.972-8.745l14.972-8.745c3.576-2.09,4.782-6.683,2.693-10.26
	c-2.09-3.575-6.684-4.78-10.259-2.693l-14.703,8.588l0.096-16.999c0.022-4.143-3.316-7.519-7.458-7.542c-0.015,0-0.028,0-0.043,0
	c-4.122,0-7.476,3.33-7.499,7.458l-0.097,17.169l-14.849-8.674c-3.575-2.087-8.169-0.883-10.259,2.693
	c-2.089,3.577-0.883,8.17,2.693,10.26l14.972,8.745l-14.972,8.745c-3.576,2.09-4.782,6.683-2.693,10.26
	c1.395,2.387,3.904,3.718,6.483,3.718c1.284,0,2.587-0.33,3.775-1.024l14.703-8.588l-0.096,16.998
	c-0.023,4.143,3.316,7.519,7.458,7.542c0.015,0,0.028,0,0.043,0c4.122,0,7.476-3.33,7.499-7.458l0.097-17.168l14.849,8.674
	c1.189,0.694,2.49,1.024,3.775,1.024c2.578,0,5.089-1.331,6.483-3.718C203.215,471.122,202.009,466.529,198.433,464.44z"/>
<g>
</g>
<g>
</g>
<g>
</g>
<g>
</g>
<g>
</g>
<g>
</g>
<g>
</g>
<g>
</g>
<g>
</g>
<g>
</g>
<g>
</g>
<g>
</g>
<g>
</g>
<g>
</g>
<g>
</g>
</svg>
